<svg width="20" height="18" viewBox="0 0 20 18" fill="none" xmlns="http://www.w3.org/2000/svg">
<path d="M3.85714 0C2.83417 0 1.85309 0.406377 1.12973 1.12973C0.406377 1.85309 0 2.83417 0 3.85714V14.1429C0 15.1658 0.406377 16.1469 1.12973 16.8703C1.85309 17.5936 2.83417 18 3.85714 18H9.49414C9.45037 17.7885 9.4284 17.5731 9.42857 17.3571V16.7143H3.85714C3.17516 16.7143 2.5211 16.4434 2.03887 15.9611C1.55663 15.4789 1.28571 14.8248 1.28571 14.1429V3.85714C1.28571 3.17516 1.55663 2.5211 2.03887 2.03887C2.5211 1.55663 3.17516 1.28571 3.85714 1.28571H14.1429C14.8248 1.28571 15.4789 1.55663 15.9611 2.03887C16.4434 2.5211 16.7143 3.17516 16.7143 3.85714V7.01914C17.1604 7.09629 17.5911 7.19914 18 7.32643V3.85714C18 2.83417 17.5936 1.85309 16.8703 1.12973C16.1469 0.406377 15.1658 0 14.1429 0H3.85714ZM7.71429 10.6071C7.62979 10.6069 7.54607 10.6233 7.46795 10.6555C7.38983 10.6877 7.31887 10.7351 7.25914 10.7949L5.44371 12.6103L4.93329 12.1449C4.80646 12.0365 4.64246 11.9816 4.47594 11.9919C4.30942 12.0022 4.15342 12.0768 4.04091 12.2C3.92841 12.3232 3.8682 12.4853 3.87301 12.6521C3.87782 12.8189 3.94729 12.9772 4.06671 13.0937L5.031 13.9744C5.15302 14.0858 5.31324 14.146 5.47843 14.1424C5.64362 14.1388 5.80108 14.0717 5.91814 13.9551L7.71429 12.159V10.6071ZM8.16943 5.27657C8.29014 5.15586 8.35795 4.99214 8.35795 4.82143C8.35795 4.65072 8.29014 4.487 8.16943 4.36629C8.04872 4.24557 7.885 4.17776 7.71429 4.17776C7.54357 4.17776 7.37985 4.24557 7.25914 4.36629L5.44371 6.18171L4.93329 5.71629C4.80646 5.60789 4.64246 5.55304 4.47594 5.56333C4.30942 5.57362 4.15342 5.64825 4.04091 5.77144C3.92841 5.89463 3.8682 6.05674 3.87301 6.22351C3.87782 6.39028 3.94729 6.54865 4.06671 6.66514L5.031 7.54586C5.15318 7.6571 5.3135 7.71702 5.47869 7.71319C5.64388 7.70936 5.80125 7.64207 5.91814 7.52528L8.16814 5.27529L8.16943 5.27657Z" fill="#A4A4A4"/>
<path d="M14.5713 7.71423C13.2124 7.73063 11.9138 8.27773 10.9529 9.23867C9.99196 10.1996 9.44486 11.4982 9.42847 12.8571C9.44486 14.216 9.99196 15.5146 10.9529 16.4755C11.9138 17.4365 13.2124 17.9836 14.5713 17.9999C15.9302 17.9836 17.2288 17.4365 18.1897 16.4755C19.1507 15.5146 19.6978 14.216 19.7142 12.8571C19.6978 11.4982 19.1507 10.1996 18.1897 9.23867C17.2288 8.27773 15.9302 7.73063 14.5713 7.71423V7.71423ZM17.5101 13.2244H14.9387V15.7959H14.204V13.2244H11.6325V12.4897H14.204V9.91832H14.9387V12.4897H17.5101V13.2244Z" fill="#A4A4A4"/>
</svg>
