<svg width="190" height="44" viewBox="0 0 190 44" fill="none" xmlns="http://www.w3.org/2000/svg">
<path d="M71.3237 23.622H73.7017V3.42761H71.3237V2.40662H83.667C85.9706 2.40662 87.7902 2.88396 89.1259 3.83866C89.753 4.26532 90.2627 4.84548 90.6074 5.5249C90.952 6.20432 91.1203 6.96083 91.0966 7.72373C91.1153 8.36525 90.9798 9.00179 90.7019 9.57902C90.4239 10.1563 90.0117 10.657 89.5004 11.0386C88.0955 12.0151 86.4635 12.6068 84.7641 12.7558V13.0408C87.164 13.2397 88.9661 13.8077 90.1704 14.7447C90.7569 15.1907 91.2276 15.7735 91.5422 16.4432C91.8568 17.1128 92.0059 17.8494 91.9769 18.59C91.9996 19.4747 91.8001 20.3509 91.3969 21.1368C90.9938 21.9228 90.4001 22.593 89.6712 23.085C88.1296 24.1944 86.0407 24.7491 83.4043 24.7491H71.3237V23.622ZM79.2066 12.4707H81.3153C82.9313 12.4707 83.9933 12.19 84.5013 11.6287C85.0137 11.0718 85.2699 9.83863 85.2699 7.94251C85.2699 5.87401 85.0509 4.6033 84.613 4.13037C84.1663 3.66628 83.0035 3.42761 81.1314 3.42761H79.2263L79.2066 12.4707ZM79.2066 23.622H82.1627C83.6999 23.622 84.705 23.317 85.1714 22.7071C85.6378 22.0972 85.8677 20.7181 85.8677 18.5038C85.8677 16.4618 85.5896 15.1049 85.0334 14.4331C84.4816 13.7701 83.3714 13.4254 81.6963 13.4254H79.2198L79.2066 23.622Z" fill="#1B478C"/>
<path d="M94.6378 24.7291V23.7081H96.6086V12.3645H94.3948V11.3303C95.6232 11.2971 96.8122 11.2441 97.9552 11.1778C99.0982 11.1115 100.215 11.0253 101.292 10.9258V23.7081H103.401V24.7291H94.6378ZM96.5297 5.50267C96.5263 5.18675 96.5875 4.87353 96.7095 4.58261C96.8316 4.2917 97.012 4.02937 97.2392 3.81207C97.4586 3.5854 97.7214 3.40618 98.0117 3.28536C98.3019 3.16454 98.6135 3.10462 98.9275 3.1093C99.2331 3.10433 99.5363 3.16367 99.8179 3.28352C100.1 3.40337 100.353 3.58113 100.563 3.80544C100.996 4.26399 101.237 4.87286 101.237 5.50599C101.237 6.13911 100.996 6.74798 100.563 7.20653C100.347 7.43271 100.088 7.61259 99.801 7.73545C99.5143 7.85831 99.206 7.92163 98.8946 7.92163C98.5831 7.92163 98.2749 7.85831 97.9882 7.73545C97.7015 7.61259 97.4423 7.43271 97.226 7.20653C97.0042 6.98721 96.8282 6.72513 96.7086 6.43585C96.589 6.14658 96.5281 5.836 96.5297 5.52256V5.50267Z" fill="#1B478C"/>
<path d="M115.594 24.7291V22.6142C115.145 23.3977 114.508 24.0544 113.741 24.5236C112.97 24.9693 112.095 25.1983 111.206 25.1866C110.36 25.2005 109.521 25.0252 108.75 24.6733C107.978 24.3214 107.294 23.8016 106.745 23.1512C105.532 21.7639 104.886 19.9626 104.939 18.1126C104.872 16.239 105.508 14.4089 106.719 12.9877C107.273 12.3373 107.962 11.8187 108.738 11.4691C109.514 11.1195 110.356 10.9475 111.206 10.9656C112.093 10.9535 112.966 11.1825 113.735 11.6286C114.504 12.1027 115.143 12.7637 115.594 13.5513V3.42755H112.966V2.40655C114.372 2.37561 115.686 2.32258 116.908 2.24744C118.13 2.17231 119.224 2.08613 120.192 1.98889V23.7081H122.038V24.7291H115.594ZM115.594 19.3258V16.7601C115.658 15.4992 115.292 14.2542 114.556 13.233C114.238 12.8087 113.824 12.4671 113.349 12.2365C112.873 12.0059 112.35 11.893 111.823 11.9071C111.58 11.8801 111.335 11.9118 111.106 11.9994C110.878 12.087 110.673 12.228 110.51 12.4109C110.208 13.0272 110.081 13.7154 110.142 14.3999V21.5402C110.077 22.2491 110.206 22.9625 110.516 23.602C110.673 23.795 110.876 23.9452 111.105 24.039C111.335 24.1328 111.584 24.1672 111.83 24.1391C112.357 24.1521 112.879 24.0387 113.354 23.8082C113.829 23.5776 114.244 23.2366 114.563 22.8131C115.292 21.794 115.655 20.5548 115.594 19.2993V19.3258Z" fill="#1B478C"/>
<path d="M129.868 28.6871C129.486 29.6895 128.912 30.6063 128.18 31.3854C127.915 31.66 127.598 31.8788 127.248 32.029C126.899 32.1792 126.523 32.2579 126.143 32.2605C125.556 32.2983 124.978 32.1005 124.534 31.7103C124.337 31.5059 124.186 31.2623 124.088 30.9951C123.991 30.7278 123.95 30.443 123.969 30.1589C123.964 29.891 124.012 29.6248 124.111 29.3762C124.21 29.1276 124.358 28.9018 124.546 28.7123C124.733 28.5228 124.957 28.3736 125.204 28.2736C125.45 28.1735 125.714 28.1248 125.979 28.1302C126.243 28.123 126.505 28.1711 126.749 28.2716C126.993 28.372 127.214 28.5225 127.398 28.7136C127.779 29.0981 128.055 29.2904 128.121 29.2904C128.206 29.2914 128.29 29.2741 128.368 29.2399C128.446 29.2056 128.516 29.155 128.574 29.0915C128.752 28.8498 128.895 28.5843 129.001 28.3025L130.499 24.7622L124.251 12.3645H122.819V11.3435H130.945V12.3778H129.283L132.607 19.5578L135.136 13.6905C135.201 13.5584 135.254 13.4209 135.294 13.2794C135.322 13.16 135.335 13.0375 135.333 12.9148C135.334 12.8347 135.312 12.7561 135.272 12.6872C135.231 12.6184 135.173 12.5618 135.103 12.5236C134.9 12.42 134.674 12.3698 134.447 12.3778H133.133V11.3435H138.447V12.3778H137.521C137.265 12.367 137.012 12.4442 136.805 12.5965C136.589 12.7994 136.428 13.0552 136.338 13.3391L129.868 28.6871Z" fill="#1B478C"/>
<path d="M149.326 22.7336C148.728 23.4872 147.969 24.0946 147.105 24.5104C146.197 24.9007 145.215 25.0885 144.228 25.0607C143.274 25.1201 142.334 24.8094 141.6 24.1922C141.281 23.8673 141.033 23.4777 140.873 23.0492C140.714 22.6207 140.646 22.1629 140.674 21.706C140.674 20.2563 141.443 19.0983 142.98 18.232C144.524 17.3635 146.606 16.906 149.247 16.906V13.6508C149.283 13.3823 149.259 13.1091 149.177 12.851C149.095 12.593 148.958 12.3566 148.774 12.1591C148.222 11.8561 147.593 11.7268 146.967 11.7878C146.521 11.7631 146.074 11.8308 145.654 11.9867C145.531 12.0299 145.423 12.1091 145.345 12.2141C145.266 12.3192 145.221 12.4454 145.213 12.5767C145.285 12.8114 145.389 13.0346 145.522 13.2397C145.718 13.5851 145.822 13.9756 145.824 14.3734C145.84 14.65 145.796 14.9268 145.695 15.1845C145.594 15.4421 145.439 15.6744 145.24 15.8651C144.758 16.2386 144.158 16.4224 143.551 16.3823C143.28 16.4017 143.007 16.364 142.75 16.2715C142.493 16.1791 142.259 16.0339 142.06 15.8452C141.876 15.6332 141.735 15.3863 141.646 15.1188C141.557 14.8514 141.521 14.5687 141.541 14.2872C141.545 13.7545 141.702 13.2344 141.993 12.7904C142.285 12.3465 142.699 11.998 143.184 11.7878C144.642 11.1217 146.236 10.8171 147.834 10.8994C148.642 10.8938 149.449 10.9582 150.245 11.0917C150.864 11.1865 151.464 11.3766 152.026 11.6552C152.48 11.862 152.859 12.2074 153.109 12.643C153.366 13.321 153.471 14.0476 153.418 14.7712V21.7192C153.389 22.0344 153.484 22.3484 153.681 22.5944C153.788 22.6944 153.915 22.7708 154.053 22.8188C154.191 22.8667 154.337 22.8851 154.482 22.8728C154.658 22.8697 154.828 22.8169 154.975 22.7203C155.081 22.6464 155.203 22.5967 155.33 22.5745C155.374 22.5738 155.418 22.5823 155.458 22.5994C155.499 22.6165 155.536 22.6419 155.566 22.6739C155.599 22.707 155.624 22.7464 155.641 22.7897C155.658 22.833 155.666 22.8793 155.665 22.9259C155.665 23.3502 155.343 23.8076 154.693 24.2982C154.054 24.7855 153.273 25.0444 152.472 25.0341C151.766 25.0549 151.072 24.838 150.502 24.4176C149.95 23.9892 149.54 23.402 149.326 22.7336ZM149.227 17.8541H148.826C147.827 17.7683 146.824 17.9731 145.936 18.4441C145.644 18.6865 145.416 18.9978 145.271 19.3505C145.127 19.7032 145.071 20.0865 145.108 20.4662C145.049 21.1909 145.202 21.9173 145.548 22.5546C145.716 22.7723 145.935 22.944 146.185 23.054C146.435 23.1641 146.709 23.2089 146.981 23.1844C147.282 23.1968 147.583 23.144 147.863 23.0297C148.143 22.9154 148.395 22.7421 148.603 22.5214C149.044 22.0389 149.28 21.4009 149.26 20.7447L149.227 17.8541Z" fill="#1B478C"/>
<path d="M163.666 25.2131L157.504 12.3645H156.072V11.3435H164.251V12.3778H162.536L165.821 19.896L168.508 13.6706C168.575 13.5444 168.628 13.411 168.665 13.2728C168.697 13.1563 168.713 13.0357 168.711 12.9148C168.711 12.8339 168.689 12.7545 168.648 12.6855C168.606 12.6164 168.546 12.5604 168.475 12.5236C168.272 12.4183 168.046 12.368 167.818 12.3778H166.353V11.3435H171.818V12.3778H170.905C170.658 12.3653 170.414 12.4403 170.215 12.5899C169.995 12.7997 169.822 13.0553 169.71 13.3391L164.573 25.2263L163.666 25.2131Z" fill="#1B478C"/>
<path d="M182.86 22.7336C182.261 23.4857 181.502 24.0929 180.64 24.5104C179.729 24.9013 178.746 25.089 177.756 25.0607C176.803 25.1208 175.862 24.81 175.129 24.1922C174.808 23.8678 174.559 23.4786 174.398 23.05C174.237 22.6215 174.168 22.1634 174.196 21.706C174.196 20.2541 174.971 19.0939 176.508 18.232C178.045 17.3701 180.134 16.906 182.775 16.906V13.6508C182.811 13.3823 182.787 13.1091 182.705 12.851C182.624 12.593 182.486 12.3566 182.302 12.1591C181.75 11.8561 181.121 11.7268 180.496 11.7878C180.049 11.7631 179.602 11.8308 179.182 11.9867C179.059 12.0299 178.951 12.1091 178.873 12.2141C178.794 12.3192 178.749 12.4454 178.742 12.5767C178.812 12.8105 178.914 13.0335 179.044 13.2397C179.244 13.5834 179.351 13.9746 179.353 14.3734C179.369 14.6507 179.325 14.9282 179.222 15.1861C179.12 15.444 178.963 15.6759 178.761 15.8651C178.282 16.2382 177.684 16.422 177.08 16.3823C176.808 16.4017 176.535 16.364 176.278 16.2715C176.022 16.1791 175.787 16.0339 175.588 15.8452C175.403 15.6336 175.261 15.3868 175.171 15.1194C175.081 14.852 175.044 14.5691 175.063 14.2872C175.067 13.754 175.226 13.2337 175.519 12.7898C175.812 12.3459 176.226 11.9977 176.712 11.7878C178.17 11.1217 179.764 10.8171 181.363 10.8994C182.17 10.8941 182.977 10.9584 183.774 11.0917C184.392 11.1865 184.992 11.3766 185.554 11.6552C186.009 11.862 186.388 12.2074 186.638 12.643C186.894 13.321 186.999 14.0476 186.946 14.7712V21.7192C186.919 22.0331 187.011 22.3458 187.203 22.5944C187.311 22.6946 187.439 22.771 187.578 22.819C187.717 22.8669 187.864 22.8852 188.011 22.8728C188.186 22.8697 188.356 22.8169 188.503 22.7203C188.61 22.6464 188.731 22.5967 188.858 22.5745C188.947 22.5747 189.032 22.6105 189.094 22.6739C189.127 22.707 189.152 22.7464 189.169 22.7897C189.186 22.833 189.194 22.8793 189.193 22.9259C189.193 23.3502 188.865 23.8076 188.221 24.2982C187.582 24.7846 186.801 25.0434 186 25.0341C185.294 25.0549 184.601 24.838 184.03 24.4176C183.481 23.9882 183.073 23.4011 182.86 22.7336ZM182.762 17.8541H182.361C181.362 17.7683 180.359 17.9731 179.471 18.4441C179.176 18.6846 178.946 18.9955 178.8 19.3485C178.654 19.7016 178.598 20.0857 178.637 20.4662C178.58 21.1906 178.733 21.916 179.077 22.5546C179.246 22.7719 179.466 22.9432 179.717 23.0532C179.968 23.1631 180.243 23.2082 180.515 23.1844C180.817 23.1959 181.117 23.1428 181.397 23.0285C181.677 22.9142 181.929 22.7414 182.138 22.5214C182.567 22.0337 182.791 21.3963 182.762 20.7447V17.8541Z" fill="#1B478C"/>
<path d="M75.9353 38.055H74.0303L73.1172 39.434C72.8478 39.8384 72.7887 40.1632 73.5508 40.276V40.4947H71.3501L71.3895 40.276C72.1318 40.1765 72.3815 39.7787 72.9333 38.95L76.8024 33.1754H77.4068V39.2417C77.4068 39.971 77.4988 40.2693 78.2739 40.2826V40.5014H75.0879L75.1273 40.2826C75.7842 40.2096 75.9944 39.9842 75.9944 39.1555L75.9353 38.055ZM75.9353 35.1776L74.3916 37.5511H75.9616L75.9353 35.1776Z" fill="#F58400"/>
<path d="M80.0475 37.3257C80.1986 36.6627 80.0475 36.3975 79.279 36.3843L79.3315 36.1721L81.4008 35.8672H81.5321L81.3548 36.6561C81.5506 36.413 81.7953 36.2146 82.0728 36.0741C82.3502 35.9335 82.654 35.8539 82.9642 35.8407C83.1668 35.8347 83.368 35.876 83.5521 35.9616C83.7362 36.0471 83.8982 36.1744 84.0255 36.3337C84.1527 36.4929 84.2417 36.6797 84.2855 36.8794C84.3293 37.0791 84.3267 37.2863 84.278 37.4848L83.9036 39.4075C83.8248 39.7986 83.9036 40.15 84.37 40.2495L84.3306 40.4682H81.9657L82.0051 40.2495C82.5438 40.1235 82.662 39.7854 82.7737 39.2086L83.0759 37.7766C83.2467 36.9743 83.0233 36.5169 82.3796 36.5169C82.1318 36.5354 81.8921 36.6137 81.6806 36.7452C81.4691 36.8767 81.292 37.0576 81.1643 37.2727L80.711 39.4605C80.619 39.9114 80.7702 40.1235 81.276 40.2495L81.2365 40.4682H78.8257L78.8651 40.2495C79.4432 40.1036 79.522 39.7854 79.6468 39.2086L80.0475 37.3257Z" fill="#F58400"/>
<path d="M92.5757 39.4472C92.3269 39.809 91.999 40.1084 91.6175 40.3222C91.236 40.536 90.8109 40.6585 90.3751 40.6804C90.1324 40.6911 89.8901 40.6523 89.6626 40.5663C89.4351 40.4803 89.2272 40.3489 89.0511 40.1799C88.8751 40.0109 88.7347 39.8079 88.6383 39.5829C88.5418 39.3579 88.4913 39.1156 88.4897 38.8704C88.5502 38.0399 88.9251 37.2647 89.5366 36.7055C90.1481 36.1464 90.9494 35.8461 91.7743 35.8671C92.3918 35.8671 92.845 36.2053 92.845 36.6693C92.845 37.7036 90.9794 38.3798 89.7247 38.4793C89.6855 38.6631 89.6875 38.8535 89.7307 39.0365C89.774 39.2194 89.8572 39.3903 89.9744 39.5366C90.0916 39.6828 90.2397 39.8007 90.4079 39.8816C90.5762 39.9625 90.7602 40.0044 90.9466 40.0041C91.2283 39.9929 91.505 39.9256 91.7609 39.8061C92.0168 39.6867 92.2469 39.5174 92.4378 39.308L92.5757 39.4472ZM91.1831 36.318C90.5261 36.318 89.8692 37.1467 89.7378 38.2074C90.8677 38.1014 91.6626 37.3853 91.6626 36.8218C91.6662 36.7564 91.6564 36.6909 91.6339 36.6294C91.6113 36.568 91.5765 36.5118 91.5315 36.4646C91.4865 36.4173 91.4323 36.3799 91.3724 36.3547C91.3124 36.3294 91.248 36.3169 91.1831 36.318Z" fill="#F58400"/>
<path d="M96.9765 38.6982H93.5081L93.6985 37.7766H97.167L96.9765 38.6982Z" fill="#F58400"/>
<path d="M103.539 40.5147H97.8694L97.9154 40.2959C98.6577 40.1699 98.8876 39.9313 99.065 39.1423L99.9912 34.8329C100.155 34.0771 100.129 33.7523 99.1898 33.5865L99.2226 33.3744H102.704V33.5865C101.798 33.8252 101.66 33.9644 101.469 34.8329L100.563 38.9567C100.379 39.8318 100.49 40.097 101.318 40.097H102.172C102.868 40.097 103.341 39.7854 103.998 38.9169H104.209L103.539 40.5147Z" fill="#F58400"/>
<path d="M108.847 39.4472C108.598 39.809 108.27 40.1084 107.889 40.3222C107.507 40.536 107.082 40.6585 106.646 40.6804C106.404 40.6911 106.161 40.6523 105.934 40.5663C105.706 40.4803 105.498 40.3489 105.322 40.1799C105.146 40.0109 105.006 39.8079 104.909 39.5829C104.813 39.3579 104.763 39.1156 104.761 38.8704C104.821 38.0399 105.196 37.2647 105.808 36.7055C106.419 36.1464 107.221 35.8461 108.046 35.8671C108.663 35.8671 109.116 36.2053 109.116 36.6693C109.116 37.7036 107.251 38.3798 105.996 38.4793C105.957 38.6631 105.959 38.8535 106.002 39.0365C106.045 39.2194 106.128 39.3903 106.246 39.5366C106.363 39.6828 106.511 39.8007 106.679 39.8816C106.847 39.9625 107.031 40.0044 107.218 40.0041C107.5 39.9929 107.776 39.9256 108.032 39.8061C108.288 39.6867 108.518 39.5174 108.709 39.308L108.847 39.4472ZM107.454 36.318C106.797 36.318 106.14 37.1467 106.009 38.2074C107.139 38.1014 107.934 37.3853 107.934 36.8218C107.938 36.7534 107.927 36.685 107.903 36.6211C107.878 36.5573 107.84 36.4995 107.792 36.4517C107.743 36.4039 107.685 36.3672 107.621 36.3441C107.557 36.321 107.489 36.3121 107.421 36.318H107.454Z" fill="#F58400"/>
<path d="M114.332 39.2218C114.194 39.9378 114.371 40.1765 114.989 40.203L114.949 40.3754L112.834 40.6671L113.025 39.7787C112.815 40.0591 112.546 40.2882 112.236 40.449C111.927 40.6097 111.586 40.6978 111.238 40.7069C111.042 40.7079 110.848 40.669 110.667 40.5925C110.486 40.5161 110.322 40.4036 110.186 40.2619C110.049 40.1202 109.942 39.9521 109.871 39.7677C109.8 39.5833 109.767 39.3864 109.773 39.1887C109.782 38.7699 109.881 38.358 110.061 37.9807C110.241 37.6033 110.499 37.2693 110.817 37.0008C111.807 36.173 113.077 35.7664 114.358 35.8671H115.015L114.332 39.2218ZM113.754 36.3577H113.136C112.779 36.3543 112.428 36.451 112.121 36.6371C111.815 36.8232 111.566 37.0914 111.402 37.4119C111.138 37.8803 110.987 38.405 110.962 38.9434C110.952 39.0732 110.968 39.2037 111.008 39.3273C111.048 39.451 111.112 39.5654 111.197 39.664C111.281 39.7625 111.384 39.8433 111.499 39.9017C111.614 39.9601 111.74 39.9949 111.868 40.0041C112.282 40.0041 112.637 39.7655 113.182 39.1356L113.754 36.3577Z" fill="#F58400"/>
<path d="M117.137 37.1004C117.209 36.7225 117.071 36.3976 116.395 36.3843L116.434 36.1722L118.405 35.8672H118.543L118.168 37.5777C118.556 36.7225 119.219 35.8407 119.686 35.8407C119.936 35.8407 120.126 35.9269 120.514 36.2451L119.765 37.4517C119.701 37.3234 119.609 37.2121 119.495 37.1268C119.38 37.0416 119.248 36.9848 119.108 36.9611C118.733 36.9611 118.405 37.4385 118.175 38.002C117.975 38.4899 117.853 39.0069 117.814 39.5335C117.814 39.9379 118.004 40.1235 118.543 40.2495L118.49 40.4683H115.685L115.738 40.2495C116.342 40.1633 116.506 39.9512 116.697 39.0429L117.137 37.1004Z" fill="#F58400"/>
<path d="M121.749 37.3257C121.9 36.6627 121.748 36.3975 120.98 36.3843L121.032 36.1721L123.108 35.8672H123.233L123.056 36.6561C123.252 36.414 123.497 36.2162 123.775 36.0758C124.052 35.9353 124.355 35.8552 124.665 35.8407C124.868 35.8347 125.069 35.876 125.253 35.9616C125.437 36.0471 125.599 36.1744 125.726 36.3337C125.854 36.4929 125.943 36.6797 125.986 36.8794C126.03 37.0791 126.028 37.2863 125.979 37.4848L125.605 39.4075C125.532 39.7986 125.605 40.15 126.071 40.2495L126.032 40.4682H123.667L123.706 40.2495C124.245 40.1235 124.363 39.7854 124.475 39.2086L124.777 37.7766C124.948 36.9743 124.724 36.5169 124.087 36.5169C123.838 36.5343 123.597 36.6122 123.384 36.7438C123.172 36.8753 122.994 37.0568 122.865 37.2727L122.412 39.4605C122.327 39.9114 122.478 40.1235 122.977 40.2495L122.938 40.4682H120.474L120.514 40.2495C121.092 40.1036 121.17 39.7854 121.295 39.2086L121.749 37.3257Z" fill="#F58400"/>
<path d="M128.285 37.3655C128.436 36.6495 128.285 36.3843 127.543 36.371L127.595 36.1589L129.645 35.8671H129.783L129.04 39.3876C128.915 39.9909 129.086 40.203 129.697 40.276L129.664 40.4948H126.918L126.971 40.276C127.199 40.2737 127.417 40.1863 127.585 40.0308C127.752 39.8753 127.856 39.6626 127.878 39.434L128.285 37.3655ZM129.264 33.0627C129.403 33.0627 129.539 33.1043 129.654 33.1823C129.77 33.2602 129.86 33.371 129.913 33.5007C129.966 33.6303 129.98 33.7729 129.953 33.9105C129.926 34.0481 129.859 34.1745 129.761 34.2737C129.662 34.373 129.537 34.4405 129.401 34.4679C129.264 34.4952 129.123 34.4812 128.995 34.4275C128.866 34.3738 128.756 34.2829 128.679 34.1662C128.602 34.0496 128.561 33.9124 128.561 33.7721C128.561 33.584 128.635 33.4035 128.767 33.2705C128.898 33.1375 129.077 33.0627 129.264 33.0627Z" fill="#F58400"/>
<path d="M131.688 37.3257C131.839 36.6627 131.688 36.3975 130.926 36.3843L130.972 36.1721L133.047 35.8672H133.152L132.975 36.6561C133.172 36.414 133.417 36.2162 133.694 36.0758C133.971 35.9353 134.275 35.8552 134.585 35.8407C134.787 35.8347 134.988 35.876 135.172 35.9616C135.357 36.0471 135.518 36.1744 135.646 36.3337C135.773 36.4929 135.862 36.6797 135.906 36.8794C135.95 37.0791 135.947 37.2863 135.898 37.4848L135.517 39.4075C135.445 39.7986 135.517 40.15 135.984 40.2495V40.4682H133.619L133.658 40.2495C134.197 40.1235 134.315 39.7854 134.42 39.2086L134.722 37.7766C134.9 36.9743 134.676 36.5169 134.033 36.5169C133.784 36.536 133.544 36.6145 133.331 36.7459C133.119 36.8773 132.94 37.0579 132.811 37.2727L132.358 39.4605C132.272 39.9114 132.423 40.1235 132.929 40.2495L132.89 40.4682H130.426L130.459 40.2495C131.037 40.1036 131.116 39.7854 131.241 39.2086L131.688 37.3257Z" fill="#F58400"/>
<path d="M141.101 42.5036C141.025 42.8431 140.852 43.1523 140.602 43.392C140.009 43.7948 139.305 43.9968 138.591 43.9687C137.468 43.9687 136.45 43.5047 136.45 42.5632C136.471 42.1706 136.643 41.8018 136.929 41.5356C137.455 41.1006 138.039 40.7434 138.664 40.4748C138.35 40.4335 138.063 40.2739 137.861 40.0279C137.658 39.782 137.556 39.468 137.573 39.1489C137.595 38.3401 137.933 37.5729 138.513 37.0141C139.242 36.2981 140.483 35.7942 142.513 35.8671L141.101 42.5036ZM140.49 39.8516C139.597 40.455 138.743 40.5146 138.013 41.2505C137.889 41.3679 137.791 41.5096 137.723 41.6669C137.655 41.8242 137.62 41.9939 137.619 42.1654C137.63 42.5181 137.77 42.8541 138.013 43.1078C138.256 43.3616 138.584 43.5149 138.933 43.5378C139.275 43.5378 139.754 43.3721 139.8 43.1069L140.49 39.8516ZM140.74 36.3378C139.636 36.3378 138.769 37.4185 138.769 38.7577C138.769 39.4207 139.13 39.9047 139.61 39.9047C139.994 39.8662 140.352 39.687 140.615 39.4008L141.272 36.371L140.74 36.3378Z" fill="#F58400"/>
<path d="M148.76 39.5135C148.668 39.9246 148.997 40.2428 149.647 40.276L149.575 40.5146H146.165L146.205 40.2959C146.993 40.1368 147.183 39.8981 147.321 39.2417L148.458 33.8915C147.988 34.041 147.545 34.2648 147.144 34.5545L147.026 34.3887C147.919 33.6385 149.037 33.2156 150.199 33.1887C151.828 33.1887 152.925 33.9909 152.925 35.1777C152.907 35.4861 152.828 35.7878 152.693 36.0653C152.558 36.3428 152.37 36.5904 152.14 36.794C151.909 36.9975 151.641 37.1528 151.351 37.251C151.06 37.3491 150.754 37.388 150.448 37.3655C150.04 37.3633 149.635 37.2869 149.253 37.1401L148.76 39.5135ZM149.338 36.8218C149.515 36.8863 149.702 36.9199 149.89 36.9213C150.108 36.9243 150.324 36.8808 150.524 36.7936C150.724 36.7063 150.903 36.5774 151.05 36.4152C151.197 36.253 151.308 36.0613 151.377 35.8525C151.445 35.6438 151.469 35.4229 151.447 35.2042C151.458 35.008 151.427 34.8118 151.356 34.6287C151.286 34.4456 151.177 34.28 151.038 34.1429C150.898 34.0059 150.731 33.9007 150.548 33.8345C150.365 33.7682 150.169 33.7424 149.975 33.7589L149.338 36.8218Z" fill="#F58400"/>
<path d="M155.192 39.3876C155.068 39.9776 155.192 40.2561 155.849 40.276L155.797 40.4948H153.057L153.097 40.276C153.826 40.203 153.911 39.9246 154.089 39.0959L155.002 34.7998C155.166 34.0307 155.14 33.5069 154.273 33.5666L154.312 33.3545L156.427 33.0627H156.539L155.192 39.3876Z" fill="#F58400"/>
<path d="M161.53 39.2218C161.392 39.9378 161.53 40.1765 162.187 40.203L162.148 40.3754L160.039 40.6671L160.223 39.7787C160.013 40.0581 159.743 40.2864 159.434 40.447C159.125 40.6076 158.784 40.6964 158.436 40.7069C158.24 40.7078 158.046 40.669 157.864 40.5926C157.683 40.5162 157.519 40.4039 157.382 40.2623C157.245 40.1207 157.137 39.9526 157.065 39.7682C156.994 39.5838 156.96 39.3867 156.965 39.1887C156.976 38.7754 157.074 38.3693 157.252 37.9969C157.43 37.6244 157.683 37.2941 157.996 37.0273C158.988 36.1998 160.26 35.7933 161.544 35.8936H162.2L161.53 39.2218ZM160.952 36.3577H160.335C159.977 36.3535 159.626 36.4499 159.319 36.6361C159.013 36.8223 158.764 37.0909 158.601 37.4119C158.333 37.8786 158.182 38.4043 158.16 38.9434C158.141 39.2044 158.224 39.4628 158.393 39.6618C158.562 39.8607 158.802 39.9838 159.06 40.0041C159.481 40.0041 159.829 39.7655 160.374 39.1356L160.952 36.3577Z" fill="#F58400"/>
<path d="M166.747 36.497H165.341L164.776 39.2086C164.678 39.6727 164.862 40.0042 165.216 40.0042C165.597 39.9314 165.955 39.7677 166.261 39.5268L166.412 39.6528C166.176 39.9568 165.878 40.2059 165.538 40.3832C165.197 40.5605 164.824 40.6619 164.441 40.6804C163.784 40.6804 163.417 40.2031 163.587 39.3545L164.192 36.4771H163.279L163.325 36.2517C164.205 35.9018 164.971 35.3119 165.538 34.5479H165.749L165.433 36.0396H166.846L166.747 36.497Z" fill="#F58400"/>
<path d="M170.596 36.4838H169.716L169.013 40.3887C168.898 41.4238 168.487 42.4028 167.83 43.2064C167.221 43.7566 166.42 44.0404 165.603 43.9953C165.137 44.0089 164.671 43.9463 164.224 43.8097L164.651 42.3777H164.848C164.94 43.1202 165.341 43.5975 165.919 43.5975C166.497 43.5975 167.324 43.1401 167.594 41.7213L168.546 36.4838H167.476L167.568 36.0528H168.625C168.967 33.6197 170.051 32.7379 171.332 32.7379C171.645 32.7382 171.958 32.7851 172.258 32.8772L172.409 32.7512H172.626L172.146 34.2561H171.969C171.969 33.3876 171.634 33.0628 171.22 33.0628C170.806 33.0628 170.34 33.4937 170.136 34.4351L169.794 36.0263H170.675L170.596 36.4838Z" fill="#F58400"/>
<path d="M177.166 37.1004C177.244 36.7225 177.107 36.3976 176.43 36.3843V36.1722L178.401 35.8672H178.539L178.164 37.5777C178.558 36.7225 179.222 35.8407 179.688 35.8407C179.938 35.8407 180.128 35.9269 180.516 36.2451L179.793 37.4783C179.731 37.349 179.639 37.2368 179.525 37.1513C179.41 37.0659 179.277 37.0097 179.136 36.9876C178.755 36.9876 178.433 37.465 178.204 38.0285C178.003 38.5165 177.881 39.0334 177.842 39.56C177.842 39.9644 178.026 40.1501 178.571 40.276L178.519 40.4948H175.714L175.766 40.276C176.371 40.1899 176.535 39.9777 176.719 39.0694L177.166 37.1004Z" fill="#F58400"/>
<path d="M174.071 35.8738C174.501 35.8754 174.914 36.047 175.221 36.3517C175.528 36.6565 175.704 37.0703 175.713 37.5047C175.661 38.3182 175.323 39.0862 174.759 39.6698C174.195 40.2535 173.443 40.6143 172.639 40.687C172.409 40.7015 172.179 40.6684 171.963 40.5896C171.746 40.5108 171.548 40.3881 171.381 40.229C171.213 40.0699 171.08 39.8779 170.989 39.6648C170.898 39.4516 170.851 39.2219 170.852 38.9898C170.901 38.1569 171.26 37.3734 171.857 36.7958C172.453 36.2182 173.244 35.889 174.071 35.8738ZM172.836 40.2826C174.044 40.2826 174.511 38.4395 174.511 37.3588C174.511 36.6959 174.195 36.2782 173.69 36.2782C172.625 36.2782 172.06 37.9754 172.06 39.1555C172.06 39.7986 172.382 40.276 172.836 40.276V40.2826Z" fill="#F58400"/>
<path d="M182.098 37.3257C182.249 36.5832 182.013 36.371 181.376 36.371L181.409 36.1589L183.498 35.8671H183.583L183.419 36.6097C183.619 36.3721 183.869 36.1827 184.151 36.0553C184.433 35.928 184.739 35.866 185.048 35.8738C185.705 35.8738 186.132 36.139 186.257 36.6428C186.717 36.1808 187.33 35.9068 187.978 35.8738C188.155 35.8487 188.335 35.8697 188.502 35.9348C188.669 35.9999 188.817 36.1068 188.931 36.2456C189.046 36.3843 189.123 36.5503 189.156 36.7277C189.19 36.9051 189.177 37.0881 189.121 37.2594L188.654 39.4936C188.569 39.9312 188.654 40.2627 189.2 40.2826L189.16 40.5014H186.657L186.697 40.2826C187.262 40.1235 187.4 39.9577 187.564 39.1887L187.919 37.571C188.043 36.9544 187.853 36.5301 187.327 36.5301C187.116 36.5521 186.911 36.6168 186.725 36.7205C186.538 36.8241 186.375 36.9646 186.243 37.1334L185.744 39.4936C185.711 39.5786 185.698 39.6704 185.706 39.7614C185.715 39.8524 185.745 39.9401 185.794 40.0172C185.842 40.0942 185.909 40.1585 185.987 40.2046C186.065 40.2508 186.153 40.2775 186.243 40.2826L186.204 40.5014H183.78L183.82 40.2826C184.476 40.1434 184.476 39.7721 184.634 39.1887L184.989 37.571C185.127 36.9412 184.989 36.5301 184.522 36.5301C184.056 36.5301 183.806 36.729 183.274 37.3191L182.828 39.4936C182.736 39.8981 182.828 40.1566 183.327 40.2826L183.287 40.5014H180.903L180.942 40.2826C181.441 40.1566 181.599 39.845 181.717 39.1887L182.098 37.3257Z" fill="#F58400"/>
<path d="M42.7487 14.999L31.5188 21.6877L20.7129 15.2523C22.42 11.0972 26.7323 8.15259 31.7865 8.15259C36.7571 8.15259 40.997 10.979 42.7487 14.999Z" fill="#F58400"/>
<path d="M31.3298 41.067L15.4138 36.6022L12.167 18.7318L27.2852 25.2179L31.3298 41.067Z" fill="#1B468D"/>
<path d="M31.3295 41.0671L16.8752 35.3242L15.4136 16.9302L29.4216 25.6402L31.3295 41.0671Z" fill="#0072B8"/>
<path d="M31.3297 41.067L18.6382 33.8096V15.4719L31.3297 23.6471V41.067Z" fill="#63B4E4"/>
<path d="M31.3296 41.067L47.2734 36.6022L50.5202 18.7318L35.4131 25.2179L31.3296 41.067Z" fill="#1B468D"/>
<path d="M31.3296 41.067L45.7839 35.3242L47.2678 16.9414L33.2654 25.6458L31.3296 41.067Z" fill="#0072B8"/>
<path d="M31.3296 41.067L44.0266 33.7984V15.4719L31.3296 23.6471V41.067Z" fill="#3C97D1"/>
<path d="M61.4602 40.9263C62.2556 38.0656 62.6592 35.1086 62.6597 32.1374C62.6597 14.4191 48.607 0 31.3299 0C14.0527 0 0 14.4191 0 32.1374C0.00115991 35.1163 0.406611 38.081 1.20501 40.9488L1.23848 41.0783H4.65818V41.0332C3.741 38.1587 3.27422 35.1573 3.27468 32.1374C3.27468 16.277 15.8602 3.37251 31.3354 3.37251C46.8106 3.37251 59.3962 16.2714 59.3962 32.1374C59.396 35.1504 58.9349 38.1453 58.0294 41.0163V41.0783H61.4491L61.4602 40.9263Z" fill="#F58400"/>
</svg>
