<svg width="22" height="22" viewBox="0 0 22 22" fill="none" xmlns="http://www.w3.org/2000/svg">
<circle cx="11" cy="11" r="10.25" stroke="#7D7D7D" stroke-width="1.5"/>
<path d="M13.1104 17V10.744C12.8118 10.392 12.4918 10.0613 12.1504 9.752C11.8198 9.44267 11.4571 9.192 11.0624 9C10.6678 8.79733 10.2464 8.696 9.79844 8.696C9.38244 8.696 9.03577 8.776 8.75844 8.936C8.49177 9.096 8.2411 9.29333 8.00644 9.528C8.1771 9.45333 8.36377 9.39467 8.56644 9.352C8.7691 9.30933 8.99844 9.288 9.25444 9.288C9.9691 9.288 10.5131 9.48533 10.8864 9.88C11.2704 10.264 11.4624 10.7387 11.4624 11.304C11.4624 11.944 11.2278 12.5307 10.7584 13.064C10.2998 13.5973 9.59577 14.1307 8.64644 14.664L7.43044 12.952C8.0491 12.6747 8.53977 12.4027 8.90244 12.136C9.27577 11.8693 9.46244 11.5867 9.46244 11.288C9.46244 11.1067 9.40377 10.968 9.28644 10.872C9.17977 10.7653 8.9931 10.712 8.72644 10.712C8.31044 10.712 7.8411 10.8507 7.31844 11.128L5.63844 9.784C6.20377 8.96267 6.81177 8.28533 7.46244 7.752C8.12377 7.208 8.87577 6.936 9.71844 6.936C10.3584 6.936 10.9451 7.07467 11.4784 7.352C12.0118 7.62933 12.5664 8.03467 13.1424 8.568C13.1318 8.44 13.1211 8.30133 13.1104 8.152C13.1104 7.992 13.1104 7.82133 13.1104 7.64V5.992H14.8544L15.2064 7.048H16.7584V8.808H15.2224V17H13.1104Z" fill="#7D7D7D"/>
</svg>
