<svg width="22" height="22" viewBox="0 0 22 22" fill="none" xmlns="http://www.w3.org/2000/svg">
<circle cx="11" cy="11" r="10.25" stroke="#7D7D7D" stroke-width="1.5"/>
<path d="M16.0128 12.312C16.0128 12.92 15.8901 13.448 15.6448 13.896C15.4101 14.3333 15.0901 14.696 14.6848 14.984C14.2795 15.272 13.8261 15.496 13.3248 15.656C12.8235 15.816 12.3061 15.9227 11.7728 15.976L11.3888 15.096C11.9755 15.1493 12.5675 15.224 13.1648 15.32C13.7621 15.416 14.3648 15.5387 14.9728 15.688C15.5915 15.8267 16.2208 16.008 16.8608 16.232L16.3008 17.896C15.2768 17.5333 14.2741 17.24 13.2928 17.016C12.3221 16.8027 11.3621 16.6373 10.4128 16.52C9.46348 16.392 8.51415 16.3067 7.56481 16.264L7.77281 14.488C8.03948 14.5307 8.36481 14.5733 8.74881 14.616C9.13281 14.648 9.55415 14.664 10.0128 14.664C10.9515 14.664 11.7035 14.5733 12.2688 14.392C12.8448 14.2 13.2608 13.9387 13.5168 13.608C13.7835 13.2773 13.9168 12.888 13.9168 12.44C13.9168 11.9387 13.7408 11.56 13.3888 11.304C13.0475 11.0373 12.5355 10.904 11.8528 10.904C11.8101 10.904 11.7515 10.9093 11.6768 10.92C11.6021 10.92 11.5221 10.9307 11.4368 10.952L11.2448 9.464C11.3728 9.44267 11.5221 9.432 11.6928 9.432C11.8741 9.42133 12.0661 9.416 12.2688 9.416C13.0155 9.416 13.6288 9.51733 14.1088 9.72C14.5995 9.912 14.9835 10.1573 15.2608 10.456C15.5381 10.7547 15.7301 11.0693 15.8368 11.4C15.9541 11.7307 16.0128 12.0347 16.0128 12.312ZM8.98881 13.928C8.44481 13.928 7.98615 13.864 7.61281 13.736C7.25015 13.608 6.96215 13.4 6.74881 13.112C6.61015 12.9093 6.49815 12.6747 6.41281 12.408C6.32748 12.1307 6.28481 11.7307 6.28481 11.208V8.6H8.31681V9.192L8.26881 10.2C8.29015 10.3387 8.30081 10.472 8.30081 10.6C8.31148 10.728 8.31681 10.8347 8.31681 10.92V11.4C8.31681 11.6027 8.32748 11.752 8.34881 11.848C8.38081 11.944 8.41815 12.0187 8.46081 12.072C8.57815 12.232 8.80215 12.312 9.13281 12.312C9.46348 12.312 9.75681 12.264 10.0128 12.168C10.2795 12.0613 10.4928 11.928 10.6528 11.768C10.8128 11.608 10.8928 11.4533 10.8928 11.304C10.8928 11.1867 10.8448 11.1013 10.7488 11.048C10.6635 10.984 10.5301 10.952 10.3488 10.952H9.91681C9.45815 10.952 9.02615 10.8453 8.62081 10.632C8.22615 10.4187 7.87948 10.1413 7.58081 9.8L7.85281 8.392C8.05548 8.616 8.25815 8.808 8.46081 8.968C8.67415 9.128 8.91415 9.25067 9.18081 9.336C9.44748 9.42133 9.76215 9.464 10.1248 9.464H11.5008C11.6501 9.464 11.7461 9.50133 11.7888 9.576C11.8421 9.64 11.9381 9.70933 12.0768 9.784C12.3221 9.89067 12.5248 10.0507 12.6848 10.264C12.8448 10.4667 12.9248 10.7387 12.9248 11.08C12.9248 11.6133 12.7541 12.0987 12.4128 12.536C12.0715 12.9627 11.6021 13.304 11.0048 13.56C10.4181 13.8053 9.74615 13.928 8.98881 13.928ZM4.97281 8.808V7.048H17.0208V8.808H4.97281Z" fill="#7D7D7D"/>
</svg>
