<svg width="22" height="22" viewBox="0 0 22 22" fill="none" xmlns="http://www.w3.org/2000/svg">
<circle cx="11" cy="11" r="10.25" stroke="#7D7D7D" stroke-width="1.5"/>
<path d="M15.9058 7.048V8.808H9.66581V9.208L9.63381 10.76C9.64448 10.888 9.64981 11.016 9.64981 11.144C9.66048 11.272 9.66581 11.4 9.66581 11.528V13.496C9.66581 13.8587 9.68715 14.1253 9.72981 14.296C9.77248 14.4667 9.83648 14.5947 9.92181 14.68C10.0711 14.84 10.3165 14.92 10.6578 14.92C10.9458 14.92 11.2231 14.8613 11.4898 14.744C11.7565 14.616 12.0285 14.4187 12.3058 14.152C12.5405 13.9387 12.7218 13.7093 12.8498 13.464C12.9778 13.2187 13.0418 12.968 13.0418 12.712C13.0418 12.4667 12.9671 12.296 12.8178 12.2C12.6791 12.104 12.4925 12.056 12.2578 12.056H12.0978C11.7778 12.056 11.4898 12.024 11.2338 11.96C10.9885 11.896 10.7058 11.7733 10.3858 11.592C10.1831 11.4747 10.0018 11.3467 9.84181 11.208C9.68181 11.0587 9.54315 10.9093 9.42581 10.76L9.55381 8.792C9.75648 9.112 9.99648 9.37867 10.2738 9.592C10.5511 9.80533 10.8605 9.97067 11.2018 10.088C11.5431 10.1947 11.9005 10.248 12.2738 10.248H12.5938C13.1591 10.248 13.5965 10.3013 13.9058 10.408C14.2151 10.5147 14.4711 10.6853 14.6738 10.92C14.8231 11.08 14.9351 11.2827 15.0098 11.528C15.0845 11.7627 15.1218 12.0027 15.1218 12.248C15.1218 12.8987 14.9991 13.4747 14.7538 13.976C14.5085 14.4773 14.1831 14.9307 13.7778 15.336C13.3511 15.752 12.8605 16.0827 12.3058 16.328C11.7511 16.5627 11.1591 16.68 10.5298 16.68C9.95381 16.68 9.50581 16.6267 9.18581 16.52C8.86581 16.4133 8.59915 16.264 8.38581 16.072C8.15115 15.8693 7.95381 15.5813 7.79381 15.208C7.63381 14.8347 7.55381 14.2587 7.55381 13.48V8.808H6.09781V7.048H15.9058Z" fill="#7D7D7D"/>
</svg>
