<svg width="22" height="22" viewBox="0 0 22 22" fill="none" xmlns="http://www.w3.org/2000/svg">
<circle cx="11" cy="11" r="10.25" stroke="#7D7D7D" stroke-width="1.5"/>
<path d="M10.0634 16.52C9.29544 16.52 8.57544 16.4187 7.90344 16.216C7.23144 16.0027 6.60744 15.656 6.03144 15.176C5.4661 14.696 4.94877 14.0453 4.47944 13.224C4.02077 12.4027 3.62077 11.3787 3.27944 10.152L5.27944 9.592C5.65277 10.8827 6.0581 11.9013 6.49544 12.648C6.94344 13.384 7.4501 13.9067 8.01544 14.216C8.58077 14.5253 9.2261 14.68 9.95144 14.68C10.7088 14.68 11.2474 14.5467 11.5674 14.28C11.8981 14.0027 12.0634 13.6507 12.0634 13.224C12.0634 12.8613 12.0208 12.5627 11.9354 12.328C11.8608 12.0933 11.7808 11.896 11.6954 11.736L13.1674 11.816C12.8368 12.1147 12.5061 12.3813 12.1754 12.616C11.8448 12.84 11.4821 13.0213 11.0874 13.16C10.7034 13.288 10.2448 13.352 9.71144 13.352C9.25277 13.352 8.8421 13.2773 8.47944 13.128C8.11677 12.9787 7.82877 12.7493 7.61544 12.44C7.41277 12.12 7.31144 11.7147 7.31144 11.224C7.31144 10.7973 7.42877 10.3813 7.66344 9.976C7.8981 9.56 8.33544 9.16533 8.97544 8.792C8.77277 8.80267 8.5861 8.808 8.41544 8.808C8.25544 8.808 8.06877 8.808 7.85544 8.808H2.86344V7.048H19.1354V8.808H14.3994C14.1114 8.808 13.7754 8.80267 13.3914 8.792C13.0181 8.77067 12.6928 8.75467 12.4154 8.744C11.7861 8.95733 11.2474 9.192 10.7994 9.448C10.3514 9.69333 10.0101 9.94933 9.77544 10.216C9.54077 10.472 9.42344 10.7227 9.42344 10.968C9.42344 11.1813 9.4821 11.3413 9.59944 11.448C9.71677 11.544 9.85544 11.592 10.0154 11.592C10.3034 11.592 10.5594 11.5333 10.7834 11.416C11.0074 11.2987 11.2634 11.1333 11.5514 10.92L13.8874 11.608C13.9621 11.8213 14.0208 12.0667 14.0634 12.344C14.1168 12.6213 14.1434 12.9147 14.1434 13.224C14.1434 13.7573 14.0101 14.28 13.7434 14.792C13.4768 15.2933 13.0448 15.7093 12.4474 16.04C11.8501 16.36 11.0554 16.52 10.0634 16.52ZM17.4074 13.848C17.4074 14.2747 17.4501 14.7333 17.5354 15.224C17.6314 15.7147 17.7648 16.2213 17.9354 16.744L15.8714 17.176C15.6688 16.6 15.5194 16.0453 15.4234 15.512C15.3274 14.9787 15.2794 14.3867 15.2794 13.736C15.2794 13.3413 15.3061 12.9573 15.3594 12.584C15.4234 12.2 15.5141 11.8427 15.6314 11.512C14.8314 11.3947 14.1434 11.2133 13.5674 10.968C12.9914 10.7227 12.5061 10.424 12.1114 10.072C11.7274 9.70933 11.4074 9.304 11.1514 8.856L13.3594 8.648C13.4874 8.84 13.6688 9.02667 13.9034 9.208C14.1488 9.37867 14.4634 9.52267 14.8474 9.64C15.2421 9.74667 15.7274 9.8 16.3034 9.8C16.4208 9.8 16.5328 9.79467 16.6394 9.784C16.7568 9.77333 16.9008 9.76267 17.0714 9.752L18.0474 11.336C17.8448 11.6987 17.6848 12.0827 17.5674 12.488C17.4608 12.8933 17.4074 13.3467 17.4074 13.848Z" fill="#7D7D7D"/>
</svg>
