<svg width="22" height="22" viewBox="0 0 22 22" fill="#3bb54a" xmlns="http://www.w3.org/2000/svg">
<circle cx="11" cy="11" r="10.25" stroke="#7D7D7D" stroke-width="0"/>
<path d="M16.4551 7.048V8.808H14.9191V17H12.8071C12.2845 16.3387 11.5591 15.7733 10.6311 15.304C9.70313 14.824 8.60446 14.4987 7.33513 14.328L6.66313 12.856C6.89779 12.696 7.12713 12.5413 7.35113 12.392C7.57513 12.2427 7.80979 12.0933 8.05512 11.944C7.44713 11.8267 7.00446 11.5973 6.72713 11.256C6.46046 10.9147 6.32713 10.5413 6.32713 10.136C6.32713 9.624 6.49779 9.18133 6.83913 8.808H5.54312V7.048H16.4551ZM11.8791 11.688C11.4311 11.912 10.9938 12.136 10.5671 12.36C10.1511 12.584 9.75113 12.8133 9.36713 13.048C10.0391 13.2187 10.6578 13.448 11.2231 13.736C11.7991 14.0133 12.3378 14.3813 12.8391 14.84C12.8391 14.68 12.8338 14.5093 12.8231 14.328C12.8125 14.136 12.8071 13.9493 12.8071 13.768V8.808H9.25513C8.75379 9.13867 8.50313 9.528 8.50313 9.976C8.50313 10.296 8.59913 10.5147 8.79113 10.632C8.99379 10.7387 9.20179 10.792 9.41513 10.792C9.66046 10.792 9.90046 10.7547 10.1351 10.68C10.3805 10.6053 10.6525 10.4773 10.9511 10.296L11.8791 11.688Z" fill="#FFFFFF"/>
</svg>
