<svg width="22" height="22" viewBox="0 0 22 22" fill="none" xmlns="http://www.w3.org/2000/svg">
<circle cx="11" cy="11" r="10.25" stroke="#7D7D7D" stroke-width="1.5"/>
<path d="M12.0162 16.936C11.2909 16.936 10.5975 16.8347 9.93619 16.632C9.27485 16.4293 8.65085 16.0827 8.06419 15.592C7.48819 15.1013 6.96019 14.4347 6.48019 13.592C6.01085 12.7387 5.60019 11.6667 5.24819 10.376L7.24819 9.816C7.50419 10.7547 7.78685 11.56 8.09619 12.232C8.41619 12.904 8.76285 13.4533 9.13619 13.88C9.50952 14.3067 9.92019 14.6213 10.3682 14.824C10.8269 15.016 11.3175 15.112 11.8402 15.112C12.5975 15.112 13.2002 14.952 13.6482 14.632C14.0962 14.312 14.3202 13.848 14.3202 13.24C14.3202 12.9627 14.2669 12.68 14.1602 12.392C14.0535 12.104 13.8722 11.7947 13.6162 11.464L14.8962 11.864C14.5655 12.216 14.2189 12.5147 13.8562 12.76C13.5042 12.9947 13.1362 13.176 12.7522 13.304C12.3682 13.4213 11.9629 13.48 11.5362 13.48C11.2375 13.48 10.9709 13.448 10.7362 13.384C10.5015 13.32 10.2989 13.2187 10.1282 13.08C9.88285 12.888 9.69619 12.6213 9.56819 12.28C9.44019 11.9387 9.37619 11.512 9.37619 11V10.264C9.37619 9.54933 9.50952 8.94667 9.77619 8.456C10.0429 7.96533 10.4109 7.592 10.8802 7.336C11.3602 7.08 11.9095 6.952 12.5282 6.952C13.2855 6.952 13.8562 7.12267 14.2402 7.464C14.6242 7.80533 14.8162 8.26933 14.8162 8.856C14.8162 9.29333 14.6882 9.656 14.4322 9.944C14.1762 10.232 13.8295 10.4453 13.3922 10.584C12.9655 10.7227 12.4909 10.792 11.9682 10.792C11.0722 10.792 10.3095 10.6587 9.68019 10.392C9.05085 10.1253 8.51219 9.78933 8.06419 9.384C7.62685 8.968 7.23219 8.536 6.88019 8.088L8.35219 7.032C8.67219 7.45867 9.01352 7.85333 9.37619 8.216C9.73885 8.57867 10.1335 8.872 10.5602 9.096C10.9869 9.30933 11.4509 9.416 11.9522 9.416C12.3042 9.416 12.5655 9.35733 12.7362 9.24C12.9069 9.112 12.9922 8.96267 12.9922 8.792C12.9922 8.64267 12.9389 8.53067 12.8322 8.456C12.7362 8.37067 12.6029 8.328 12.4322 8.328C12.2082 8.328 12.0215 8.392 11.8722 8.52C11.7229 8.648 11.6109 8.81333 11.5362 9.016C11.4722 9.21867 11.4402 9.43733 11.4402 9.672V11.096C11.4402 11.2773 11.4669 11.4267 11.5202 11.544C11.5735 11.6507 11.6855 11.704 11.8562 11.704C12.0695 11.704 12.2615 11.672 12.4322 11.608C12.6135 11.544 12.8002 11.4427 12.9922 11.304C13.1842 11.1653 13.4029 10.984 13.6482 10.76L15.5362 10.584C15.8135 10.968 16.0322 11.4107 16.1922 11.912C16.3522 12.4133 16.4322 12.9147 16.4322 13.416C16.4322 14.1093 16.2669 14.7227 15.9362 15.256C15.6055 15.7787 15.1095 16.1893 14.4482 16.488C13.7975 16.7867 12.9869 16.936 12.0162 16.936Z" fill="#7D7D7D"/>
</svg>
