<svg width="22" height="22" viewBox="0 0 22 22" fill="none" xmlns="http://www.w3.org/2000/svg">
<circle cx="11" cy="11" r="10.25" stroke="#7D7D7D" stroke-width="1.5"/>
<path d="M12.8599 7.048V17H10.7479C10.3532 16.424 9.87321 15.9173 9.30788 15.48C8.75321 15.0427 8.13454 14.68 7.45188 14.392C6.76921 14.0933 6.02788 13.88 5.22787 13.752L4.42788 11.864C5.40921 11.32 6.48121 10.7973 7.64388 10.296C8.81721 9.784 9.96921 9.37867 11.0999 9.08L10.8119 9.544V8.808H4.01187V7.048H12.8599ZM10.7479 10.616L11.0839 10.968C10.6145 11.1067 10.1612 11.256 9.72388 11.416C9.29721 11.576 8.87054 11.752 8.44388 11.944C8.01721 12.1253 7.57454 12.328 7.11588 12.552C7.55321 12.6373 8.00654 12.7867 8.47588 13C8.95588 13.2027 9.41988 13.4693 9.86788 13.8C10.3265 14.1307 10.7372 14.5147 11.0999 14.952L10.8119 15.128C10.8012 14.936 10.7852 14.7227 10.7639 14.488C10.7532 14.2533 10.7479 14.0027 10.7479 13.736V10.616ZM17.9959 7.048V8.808H16.4599V15.816H14.3639C14.1079 15.4427 13.8199 15.1013 13.4999 14.792C13.1799 14.4827 12.8279 14.2053 12.4439 13.96C12.0705 13.704 11.6652 13.48 11.2279 13.288L11.3399 11.624C11.7345 11.7413 12.1292 11.9067 12.5239 12.12C12.9185 12.3227 13.3025 12.568 13.6759 12.856C14.0492 13.144 14.3905 13.4747 14.6999 13.848L14.4119 14.024C14.4012 13.8427 14.3852 13.6347 14.3639 13.4C14.3532 13.1547 14.3479 12.8987 14.3479 12.632V5.992H16.0919L16.4439 7.048H17.9959Z" fill="#7D7D7D"/>
</svg>
