<svg width="22" height="22" viewBox="0 0 22 22" fill="none" xmlns="http://www.w3.org/2000/svg">
<circle cx="11" cy="11" r="10.25" fill="#FCFCFC" stroke="#7D7D7D" stroke-width="1.5"/>
<path d="M8.06381 10.264C7.34915 10.264 6.77848 10.0933 6.35181 9.752C5.92515 9.4 5.71181 8.92 5.71181 8.312C5.71181 8.056 5.74381 7.816 5.80781 7.592C5.87181 7.35733 5.95181 7.144 6.04781 6.952L7.93581 7.4C7.83981 7.592 7.79181 7.77333 7.79181 7.944C7.79181 8.136 7.85048 8.27467 7.96781 8.36C8.08515 8.44533 8.23448 8.488 8.41581 8.488C8.72515 8.488 8.99181 8.408 9.21581 8.248C9.45048 8.088 9.72248 7.784 10.0318 7.336L11.5198 7C11.8291 7.33067 12.0851 7.72 12.2878 8.168C12.5011 8.616 12.6078 9.096 12.6078 9.608C12.6078 10.312 12.4105 10.9413 12.0158 11.496C11.6211 12.04 11.0078 12.4507 10.1758 12.728C10.9971 12.9627 11.6531 13.256 12.1438 13.608C12.6451 13.9493 13.1091 14.3013 13.5358 14.664C13.5251 14.4187 13.5145 14.1733 13.5038 13.928C13.5038 13.672 13.5038 13.4053 13.5038 13.128V5.992H15.2318L15.5998 7.048H17.1518V8.808H15.6158V17H13.5038C13.0025 16.392 12.4691 15.88 11.9038 15.464C11.3491 15.048 10.7251 14.7067 10.0318 14.44C9.34915 14.1627 8.55981 13.9547 7.66381 13.816L7.13581 11.96C8.29848 11.7467 9.15715 11.4747 9.71181 11.144C10.2665 10.8027 10.5438 10.36 10.5438 9.816C10.5438 9.656 10.5118 9.50133 10.4478 9.352C10.1385 9.64 9.79181 9.864 9.40781 10.024C9.02381 10.184 8.57581 10.264 8.06381 10.264Z" fill="#7D7D7D"/>
</svg>
