<svg width="22" height="22" viewBox="0 0 22 22" fill="none" xmlns="http://www.w3.org/2000/svg">
<circle cx="11" cy="11" r="10.25" stroke="#7D7D7D" stroke-width="1.5"/>
<path d="M10.9655 6.952C11.4775 6.952 11.8935 7.00533 12.2135 7.112C12.5442 7.208 12.8322 7.352 13.0775 7.544C13.2802 7.704 13.4455 7.93867 13.5735 8.248C13.7122 8.55733 13.7815 9.01067 13.7815 9.608L13.8295 10.184V12.344L13.7335 12.68C13.7655 12.9787 13.7868 13.256 13.7975 13.512C13.8188 13.7573 13.8295 14.0347 13.8295 14.344V17H11.7495C11.6322 16.744 11.4988 16.5413 11.3495 16.392C11.2108 16.232 11.0295 16.1147 10.8055 16.04C10.5922 15.9653 10.3148 15.928 9.9735 15.928C9.57883 15.928 9.21083 15.9493 8.8695 15.992C8.52817 16.0347 8.19217 16.0773 7.8615 16.12C7.53083 16.152 7.1735 16.168 6.7895 16.168C6.33083 16.168 5.87217 16.1307 5.4135 16.056C4.9655 15.9707 4.55483 15.8107 4.1815 15.576C3.80817 15.3307 3.50417 14.9787 3.2695 14.52C3.0455 14.0507 2.9335 13.432 2.9335 12.664C2.9335 12.3867 2.95483 12.0933 2.9975 11.784C3.04017 11.4747 3.08283 11.2027 3.1255 10.968L5.1895 11.24C5.14683 11.3893 5.1095 11.5707 5.0775 11.784C5.0455 11.9973 5.0295 12.2587 5.0295 12.568C5.0295 12.9627 5.08817 13.2773 5.2055 13.512C5.32283 13.7467 5.4775 13.928 5.6695 14.056C5.87217 14.1733 6.09617 14.2533 6.3415 14.296C6.58683 14.328 6.8375 14.344 7.0935 14.344C7.59483 14.344 8.0535 14.3067 8.4695 14.232C8.8855 14.1573 9.29617 14.12 9.7015 14.12C10.1282 14.12 10.4908 14.1733 10.7895 14.28C11.0882 14.3867 11.3975 14.6 11.7175 14.92V10.04C11.7175 9.69867 11.6962 9.45333 11.6535 9.304C11.6108 9.144 11.5415 9.02133 11.4455 8.936C11.3068 8.78667 11.0775 8.712 10.7575 8.712C10.4695 8.712 10.1975 8.78133 9.9415 8.92C9.69617 9.048 9.4775 9.21333 9.2855 9.416C9.0935 9.61867 8.93883 9.82133 8.8215 10.024C8.71483 10.2267 8.6615 10.3973 8.6615 10.536C8.6615 10.632 8.6775 10.7173 8.7095 10.792C8.75217 10.8667 8.83217 10.9307 8.9495 10.984C9.06683 11.0267 9.2375 11.048 9.4615 11.048C9.57883 11.048 9.68017 11.0427 9.7655 11.032C9.85083 11.0213 9.94683 11.0107 10.0535 11L10.1495 12.712C10.0108 12.7547 9.84017 12.792 9.6375 12.824C9.43483 12.856 9.18417 12.872 8.8855 12.872C8.23483 12.872 7.6855 12.7067 7.2375 12.376C6.80017 12.0453 6.5815 11.528 6.5815 10.824C6.5815 10.3867 6.6935 9.944 6.9175 9.496C7.1415 9.03733 7.45617 8.616 7.8615 8.232C8.26683 7.848 8.73083 7.53867 9.2535 7.304C9.78683 7.06933 10.3575 6.952 10.9655 6.952ZM16.3735 7.176C17.1308 7.176 17.7175 7.36267 18.1335 7.736C18.5602 8.10933 18.7735 8.57867 18.7735 9.144C18.7735 9.432 18.6988 9.74667 18.5495 10.088C18.4002 10.4293 18.1122 10.7493 17.6855 11.048C17.2695 11.3467 16.6455 11.576 15.8135 11.736L15.4295 10.184C15.8668 10.1093 16.1975 10.0027 16.4215 9.864C16.6562 9.71467 16.7735 9.53333 16.7735 9.32C16.7735 9.11733 16.7042 8.97867 16.5655 8.904C16.4375 8.82933 16.2775 8.792 16.0855 8.792C15.6268 8.792 15.1895 8.96267 14.7735 9.304C14.3682 9.64533 14.0215 10.104 13.7335 10.68L13.3495 8.616C13.7762 8.12533 14.2295 7.76267 14.7095 7.528C15.2002 7.29333 15.7548 7.176 16.3735 7.176ZM16.2935 14.44C15.6108 14.44 15.0348 14.296 14.5655 14.008C14.1068 13.7093 13.7388 13.3413 13.4615 12.904L12.7095 11.56L13.7015 10.248C13.8295 10.8347 14.0108 11.32 14.2455 11.704C14.4802 12.0773 14.7468 12.36 15.0455 12.552C15.3548 12.7333 15.6695 12.824 15.9895 12.824C16.2455 12.824 16.4535 12.776 16.6135 12.68C16.7842 12.5733 16.8695 12.3973 16.8695 12.152C16.8695 11.928 16.7788 11.72 16.5975 11.528C16.4162 11.336 16.1282 11.1707 15.7335 11.032L17.3975 10.392C17.6215 10.488 17.8455 10.6213 18.0695 10.792C18.2935 10.9627 18.4802 11.176 18.6295 11.432C18.7788 11.688 18.8535 12.0027 18.8535 12.376C18.8535 12.7387 18.7628 13.08 18.5815 13.4C18.4002 13.7093 18.1228 13.96 17.7495 14.152C17.3762 14.344 16.8908 14.44 16.2935 14.44Z" fill="#7D7D7D"/>
</svg>
