<svg width="22" height="22" viewBox="0 0 22 22" fill="none" xmlns="http://www.w3.org/2000/svg">
<circle cx="11" cy="11" r="10.25" fill="#FCFCFC" stroke="#7D7D7D" stroke-width="1.5"/>
<path d="M17.3406 11.872C17.3406 12.224 17.266 12.56 17.1166 12.88C16.978 13.2 16.7326 13.4613 16.3806 13.664C16.0286 13.8667 15.538 13.968 14.9086 13.968C14.4713 13.968 14.0926 13.936 13.7726 13.872L13.8366 12.112C13.89 12.1227 13.954 12.1333 14.0286 12.144C14.114 12.144 14.2206 12.144 14.3486 12.144C14.7326 12.144 14.9833 12.08 15.1006 11.952C15.218 11.8133 15.2766 11.648 15.2766 11.456C15.2766 11.1147 15.0686 10.8107 14.6526 10.544C14.2366 10.2773 13.6286 10.064 12.8286 9.904V16H10.7166C10.1193 15.136 9.34596 14.432 8.39663 13.888C7.45796 13.3333 6.39129 12.9547 5.19662 12.752L4.39663 10.864C5.32463 10.3413 6.34329 9.84 7.45263 9.36C8.57263 8.86933 9.67663 8.46933 10.7646 8.16V7.808H3.98062V6.048H18.0126V7.808H12.7966V8.144C13.6393 8.272 14.402 8.50133 15.0846 8.832C15.778 9.16267 16.3273 9.584 16.7326 10.096C17.138 10.5973 17.3406 11.1893 17.3406 11.872ZM7.08463 11.552C7.68196 11.6693 8.30596 11.904 8.95663 12.256C9.60729 12.5973 10.2046 13.04 10.7486 13.584C10.738 13.456 10.7273 13.3227 10.7166 13.184C10.7166 13.0347 10.7166 12.8853 10.7166 12.736V10.064C10.0873 10.2667 9.47929 10.4907 8.89263 10.736C8.31663 10.9813 7.71396 11.2533 7.08463 11.552Z" fill="#7D7D7D"/>
</svg>
