<svg width="20" height="20" viewBox="0 0 20 20" fill="none" xmlns="http://www.w3.org/2000/svg">
<g clip-path="url(#clip0_3_3328)">
<path d="M12.4108 20H7.41083V17.0725C6.54188 16.7651 5.73704 16.3001 5.03667 15.7008L2.5 17.1667L0 12.8333L2.53583 11.3708C2.36926 10.4645 2.36926 9.53546 2.53583 8.62917L0 7.16667L2.5 2.83333L5.03667 4.29917C5.73704 3.69994 6.54188 3.23495 7.41083 2.9275V0H12.4108V2.9275C13.2798 3.23495 14.0846 3.69994 14.785 4.29917L17.3217 2.83333L19.8217 7.16667L17.2858 8.62917C17.4524 9.53546 17.4524 10.4645 17.2858 11.3708L19.8217 12.8333L17.3217 17.1667L14.785 15.7017C14.0846 16.3006 13.2797 16.7653 12.4108 17.0725V20ZM9.0775 18.3333H10.7442V15.8108L11.37 15.6492C12.3967 15.3832 13.3312 14.8418 14.0725 14.0833L14.525 13.6225L16.7108 14.885L17.5442 13.4417L15.3608 12.1808L15.5325 11.5592C15.8147 10.5366 15.8147 9.45672 15.5325 8.43417L15.3608 7.8125L17.5442 6.55167L16.7108 5.10833L14.525 6.37417L14.0725 5.91667C13.3308 5.15945 12.3963 4.61918 11.37 4.35417L10.7442 4.18917V1.66667H9.0775V4.18917L8.45167 4.35083C7.42499 4.61679 6.4905 5.15824 5.74917 5.91667L5.29667 6.3775L3.11083 5.11167L2.2775 6.555L4.46083 7.81583L4.28917 8.4375C4.00696 9.46005 4.00696 10.5399 4.28917 11.5625L4.46083 12.1842L2.2775 13.445L3.11083 14.8883L5.29667 13.6258L5.74917 14.0867C6.49091 14.8439 7.42535 15.3841 8.45167 15.6492L9.0775 15.8108V18.3333ZM9.91083 13.3333C9.25156 13.3333 8.6071 13.1378 8.05893 12.7716C7.51077 12.4053 7.08353 11.8847 6.83123 11.2756C6.57894 10.6665 6.51293 9.9963 6.64155 9.3497C6.77017 8.7031 7.08764 8.10915 7.55381 7.64298C8.01999 7.1768 8.61393 6.85933 9.26053 6.73072C9.90714 6.6021 10.5774 6.66811 11.1864 6.9204C11.7955 7.17269 12.3161 7.59994 12.6824 8.1481C13.0487 8.69626 13.2442 9.34073 13.2442 10C13.2442 10.8841 12.893 11.7319 12.2679 12.357C11.6427 12.9821 10.7949 13.3333 9.91083 13.3333ZM9.91083 8.33333C9.5812 8.33333 9.25897 8.43108 8.98488 8.61422C8.7108 8.79735 8.49718 9.05765 8.37103 9.36219C8.24489 9.66674 8.21188 10.0018 8.27619 10.3252C8.3405 10.6485 8.49924 10.9454 8.73232 11.1785C8.96541 11.4116 9.26238 11.5703 9.58568 11.6346C9.90899 11.699 10.2441 11.6659 10.5486 11.5398C10.8532 11.4137 11.1135 11.2 11.2966 10.926C11.4798 10.6519 11.5775 10.3296 11.5775 10C11.5775 9.55797 11.4019 9.13405 11.0893 8.82149C10.7768 8.50893 10.3529 8.33333 9.91083 8.33333Z" fill="#7C7C7C"/>
</g>
<defs>
<clipPath id="clip0_3_3328">
<rect width="20" height="20" fill="white"/>
</clipPath>
</defs>
</svg>
