<svg width="20" height="20" viewBox="0 0 20 20" fill="none" xmlns="http://www.w3.org/2000/svg">
<g clip-path="url(#clip0_1_2581)">
<path d="M17.9002 7.49971H17.8068C18.5318 6.03221 18.321 3.05221 18.2668 2.42805L18.1835 1.49888L17.2668 1.68305C16.646 1.80721 13.6485 2.46138 12.5052 3.62388C11.9478 2.7334 11.3152 1.89227 10.6143 1.10971L10.0002 0.416382L9.38017 1.10721C8.67918 1.89057 8.04659 2.73254 7.48933 3.62388C6.346 2.46138 3.3485 1.80721 2.72767 1.68305L1.81433 1.49971L1.731 2.42888C1.67683 3.05305 1.466 6.03304 2.191 7.50054H2.10017C1.7239 7.50104 1.35465 7.60243 1.03089 7.79413C0.707121 7.98584 0.440684 8.26086 0.259332 8.59054C0.0805772 8.90572 -0.00919214 9.26355 -0.000385644 9.62579C0.00842085 9.98803 0.115472 10.3411 0.309332 10.6472C1.91683 13.2022 6.14933 15.193 8.35517 16.0947C7.41223 16.8583 6.80611 17.961 6.66683 19.1664V19.9997H13.3335V19.1664C13.2621 18.2247 12.859 17.3389 12.196 16.6664H13.3335C13.7755 16.6664 14.1995 16.842 14.512 17.1545C14.8246 17.4671 15.0002 17.891 15.0002 18.333H16.6668C16.6655 17.5556 16.3926 16.8031 15.8951 16.2056C15.3976 15.6082 14.707 15.2034 13.9427 15.0614C16.0743 14.0039 18.5527 12.4722 19.6927 10.6447C19.8856 10.3382 19.9917 9.98509 19.9996 9.62301C20.0075 9.26094 19.917 8.90351 19.7377 8.58887C19.5563 8.25996 19.2904 7.98553 18.9673 7.79402C18.6442 7.60251 18.2757 7.50089 17.9002 7.49971ZM13.6668 4.83304C13.9793 4.41138 15.321 3.89221 16.6668 3.53971C16.7102 4.95638 16.5935 6.41554 16.2785 6.84137C16.1518 7.01468 15.9919 7.16101 15.808 7.27181C15.6241 7.38261 15.42 7.45566 15.2076 7.4867C14.9952 7.51773 14.7787 7.50612 14.5708 7.45256C14.3629 7.39899 14.1678 7.30453 13.9968 7.17471C13.6461 6.90536 13.4151 6.50917 13.3534 6.0713C13.2917 5.63343 13.4042 5.18882 13.6668 4.83304ZM10.0002 2.95721C10.8852 4.06721 11.6668 5.31638 11.6668 5.83304C11.6668 6.27507 11.4912 6.69899 11.1787 7.01155C10.8661 7.32411 10.4422 7.49971 10.0002 7.49971C9.55814 7.49971 9.13422 7.32411 8.82166 7.01155C8.5091 6.69899 8.3335 6.27507 8.3335 5.83304C8.3335 5.30221 9.116 4.06221 10.0002 2.95721ZM3.3385 3.53554C4.68267 3.88804 6.02433 4.40721 6.3335 4.83304C6.59408 5.18762 6.70593 5.62993 6.64523 6.06576C6.58452 6.50159 6.35606 6.8965 6.0085 7.16637C5.83753 7.2962 5.6424 7.39065 5.43452 7.44422C5.22663 7.49779 5.01016 7.5094 4.79774 7.47836C4.58532 7.44733 4.38121 7.37428 4.19734 7.26348C4.01347 7.15268 3.85352 7.00635 3.72683 6.83304C3.41183 6.41137 3.29517 4.94971 3.3385 3.53554ZM8.6285 18.333C9.00799 17.7783 9.47063 17.2853 10.0002 16.8714C10.5297 17.2853 10.9923 17.7783 11.3718 18.333H8.6285ZM18.281 9.76054C17.2027 11.4872 14.501 12.9855 12.4193 13.9422C12.9773 12.9977 13.2914 11.9292 13.3335 10.833H11.6668C11.5127 12.2204 10.9301 13.5253 10.0002 14.5664C9.0702 13.5253 8.48766 12.2204 8.3335 10.833H6.66683C6.70891 11.9265 7.02158 12.9925 7.57683 13.9355C5.50017 12.9764 2.801 11.478 1.72017 9.7597C1.6859 9.70531 1.66771 9.64233 1.66771 9.57804C1.66771 9.51375 1.6859 9.45077 1.72017 9.39637C1.75707 9.32749 1.81181 9.26979 1.87867 9.22933C1.94552 9.18886 2.02202 9.16712 2.10017 9.16637H17.9002C17.9785 9.16692 18.0552 9.18847 18.1223 9.22878C18.1895 9.26909 18.2445 9.32668 18.2818 9.39554C18.3157 9.4504 18.3336 9.51366 18.3335 9.57816C18.3333 9.64265 18.3152 9.70583 18.281 9.76054Z" fill="#7C7C7C"/>
</g>
<defs>
<clipPath id="clip0_1_2581">
<rect width="20" height="20" fill="white"/>
</clipPath>
</defs>
</svg>
