<svg width="20" height="20" viewBox="0 0 20 20" fill="none" xmlns="http://www.w3.org/2000/svg">
<g clip-path="url(#clip0_1_2609)">
<path d="M1.20341 5.55727C0.92437 5.637 0.670988 5.7882 0.468331 5.99592C0.265675 6.20364 0.120768 6.46068 0.04795 6.7416C-0.0248682 7.02251 -0.0230741 7.31758 0.0531547 7.59759C0.129384 7.8776 0.277405 8.13286 0.482573 8.3381L3.32591 11.1781V16.6664H8.82007L11.6826 19.5247C11.8362 19.6797 12.019 19.8028 12.2203 19.8869C12.4217 19.971 12.6377 20.0144 12.8559 20.0147C12.9993 20.0145 13.1421 19.996 13.2809 19.9597C13.5617 19.889 13.8189 19.7456 14.0267 19.5438C14.2344 19.3421 14.3853 19.0892 14.4642 18.8106L19.9926 0.0172729L1.20341 5.55727ZM1.66674 7.15976L15.8567 2.97644L4.99424 13.8214V10.4881L1.66674 7.15976ZM12.8667 18.3464L9.51091 14.9998H6.17757L17.0384 4.1481L12.8667 18.3464Z" fill="#7C7C7C"/>
</g>
<defs>
<clipPath id="clip0_1_2609">
<rect width="20" height="20" fill="white"/>
</clipPath>
</defs>
</svg>
