<svg width="20" height="20" viewBox="0 0 20 20" fill="none" xmlns="http://www.w3.org/2000/svg">
<g clip-path="url(#clip0_53_12695)">
<path d="M1.60417 7.5V7.5625H1.66667H7.5H7.5625V7.5V1.66667V1.60417H7.5H2.5C2.26241 1.60417 2.03455 1.69855 1.86655 1.86655C1.69855 2.03455 1.60417 2.26241 1.60417 2.5V7.5ZM9.10417 9.10417H0.0625V2.5C0.0625 1.85353 0.319307 1.23355 0.776427 0.776427C1.23355 0.319307 1.85353 0.0625 2.5 0.0625H9.10417V9.10417Z" fill="#7C7C7C" stroke="white" stroke-width="0.125"/>
<path d="M12.4372 7.5V7.5625H12.4997H18.333H18.3955V7.5V2.5C18.3955 2.26241 18.3011 2.03455 18.1331 1.86655C17.9651 1.69855 17.7373 1.60417 17.4997 1.60417H12.4997H12.4372V1.66667V7.5ZM19.9372 9.10417H10.8955V0.0625H17.4997C18.1461 0.0625 18.7661 0.319307 19.2232 0.776427C19.6804 1.23355 19.9372 1.85353 19.9372 2.5V9.10417Z" fill="#7C7C7C" stroke="white" stroke-width="0.125"/>
<path d="M1.66667 12.4374H1.60417V12.4999V17.4999C1.60417 17.7375 1.69855 17.9654 1.86655 18.1334C2.03455 18.3014 2.26241 18.3957 2.5 18.3957H7.5H7.5625V18.3332V12.4999V12.4374H7.5H1.66667ZM9.10417 19.9374H2.5C1.85353 19.9374 1.23355 19.6806 0.776427 19.2235C0.319307 18.7664 0.0625 18.1464 0.0625 17.4999V10.8958H9.10417V19.9374Z" fill="#7C7C7C" stroke="white" stroke-width="0.125"/>
<path d="M12.4372 18.3332V18.3957H12.4997H17.4997C17.7373 18.3957 17.9651 18.3014 18.1331 18.1334C18.3011 17.9654 18.3955 17.7375 18.3955 17.4999V12.4999V12.4374H18.333H12.4997H12.4372V12.4999V18.3332ZM17.4997 19.9374H10.8955V10.8958H19.9372V17.4999C19.9372 18.1464 19.6804 18.7664 19.2232 19.2235C18.7661 19.6806 18.1461 19.9374 17.4997 19.9374Z" fill="#7C7C7C" stroke="white" stroke-width="0.125"/>
</g>
<defs>
<clipPath id="clip0_53_12695">
<rect width="20" height="20" fill="white"/>
</clipPath>
</defs>
</svg>
