<svg width="20" height="20" viewBox="0 0 20 20" fill="none" xmlns="http://www.w3.org/2000/svg">
<path d="M10.0083 14.1667C9.29994 14.1667 8.58327 13.9834 8.02494 13.625L3.00827 10.35C2.07493 9.7417 1.5166 8.7167 1.5166 7.60003C1.5166 6.48336 2.07493 5.45836 3.00827 4.85003L8.03327 1.58336C9.14994 0.858362 10.8916 0.858362 11.9999 1.5917L16.9916 4.8667C17.9166 5.47503 18.4749 6.50003 18.4749 7.60836C18.4749 8.7167 17.9166 9.7417 16.9916 10.35L11.9999 13.625C11.4416 13.9917 10.7249 14.1667 10.0083 14.1667ZM10.0083 2.2917C9.53327 2.2917 9.05827 2.40003 8.7166 2.63336L3.69993 5.90003C3.1166 6.28336 2.77493 6.90003 2.77493 7.60003C2.77493 8.30003 3.10827 8.9167 3.69993 9.30003L8.7166 12.575C9.40827 13.025 10.6249 13.025 11.3166 12.575L16.3083 9.30003C16.8916 8.9167 17.2249 8.30003 17.2249 7.60003C17.2249 6.90003 16.8916 6.28336 16.3083 5.90003L11.3166 2.62503C10.9666 2.40836 10.4916 2.2917 10.0083 2.2917Z" fill="#7C7C7C"/>
<path d="M9.99982 18.9584C9.63316 18.9584 9.25816 18.9084 8.95816 18.8084L6.29982 17.925C5.04149 17.5084 4.04982 16.1334 4.05816 14.8084L4.06649 10.9C4.06649 10.5584 4.34982 10.275 4.69149 10.275C5.03316 10.275 5.31649 10.5584 5.31649 10.9L5.30816 14.8084C5.30816 15.5917 5.95816 16.4917 6.69982 16.7417L9.35816 17.625C9.69149 17.7334 10.3082 17.7334 10.6415 17.625L13.2998 16.7417C14.0415 16.4917 14.6915 15.5917 14.6915 14.8167V10.95C14.6915 10.6084 14.9748 10.325 15.3165 10.325C15.6582 10.325 15.9415 10.6084 15.9415 10.95V14.8167C15.9415 16.1417 14.9582 17.5084 13.6998 17.9334L11.0415 18.8167C10.7415 18.9084 10.3665 18.9584 9.99982 18.9584Z" fill="#7C7C7C"/>
<path d="M17.8335 13.125C17.4918 13.125 17.2085 12.8417 17.2085 12.5V7.5C17.2085 7.15833 17.4918 6.875 17.8335 6.875C18.1752 6.875 18.4585 7.15833 18.4585 7.5V12.5C18.4585 12.8417 18.1752 13.125 17.8335 13.125Z" fill="#7C7C7C"/>
</svg>
