<svg width="20" height="20" viewBox="0 0 20 20" fill="none" xmlns="http://www.w3.org/2000/svg">
<path d="M15.3397 16.0583C15.1751 16.2062 14.9219 16.193 14.7736 16.0283C14.6256 15.8637 14.6389 15.6105 14.8035 15.4621C15.5533 14.7855 16.161 13.9558 16.5762 13.0223C16.9751 12.1257 17.1971 11.1302 17.1971 10.0805C17.1971 9.03086 16.9756 8.03538 16.5762 7.13875C16.1611 6.20529 15.5534 5.37559 14.8035 4.69895C14.6389 4.55104 14.6256 4.29744 14.7736 4.13276C14.9215 3.96809 15.1751 3.95488 15.3397 4.10279C16.171 4.8526 16.8451 5.77381 17.3071 6.812C17.7523 7.81274 18 8.91883 18 10.0801C18 11.2414 17.7528 12.3473 17.3071 13.3483C16.8451 14.3864 16.171 15.3076 15.3397 16.0575V16.0583ZM8.36376 10.0811V8.37689C8.36376 8.17796 8.4642 8.00804 8.63841 7.91224C8.81262 7.81706 9.01045 7.82281 9.17828 7.92961L11.8591 9.6338C12.0165 9.73375 12.1048 9.89426 12.1048 10.0811C12.1048 10.2679 12.0163 10.4284 11.8591 10.5283L9.17828 12.2325C9.01043 12.3393 8.81311 12.3457 8.63841 12.2499C8.4642 12.1541 8.36376 11.9837 8.36376 11.7852V10.0811ZM12.8746 6.66512C12.7068 6.52149 12.6868 6.26837 12.831 6.10053C12.9746 5.93268 13.2277 5.91274 13.3955 6.05686C13.9738 6.55198 14.4436 7.16918 14.7656 7.86847C15.0766 8.54355 15.2497 9.29336 15.2497 10.0815C15.2497 10.8697 15.0761 11.62 14.7656 12.2945C14.4436 12.9938 13.9737 13.611 13.3955 14.1061C13.2277 14.2497 12.9746 14.2303 12.831 14.0624C12.6873 13.8946 12.7068 13.6414 12.8746 13.4978C13.365 13.078 13.7644 12.5538 14.038 11.9593C14.3005 11.3894 14.4468 10.7532 14.4468 10.0814C14.4468 9.40947 14.3005 8.77379 14.038 8.20344C13.7644 7.60888 13.3656 7.08476 12.8746 6.6649V6.66512ZM5.19647 15.4626C5.36114 15.6105 5.37436 15.8641 5.22645 16.0288C5.07854 16.1935 4.82494 16.2067 4.66026 16.0588C3.82896 15.309 3.15489 14.3877 2.69293 13.3496C2.24773 12.3488 2 11.2427 2 10.0814C2 8.92018 2.24725 7.81421 2.69293 6.81329C3.15489 5.77513 3.82896 4.85391 4.66026 4.10408C4.82493 3.95617 5.07806 3.96938 5.22645 4.13405C5.37436 4.29872 5.36114 4.55184 5.19647 4.70023C4.44667 5.37688 3.83898 6.20661 3.42376 7.14004C3.02494 8.03667 2.80289 9.03214 2.80289 10.0818C2.80289 11.1315 3.02445 12.127 3.42376 13.0236C3.83886 13.9571 4.44663 14.7868 5.19647 15.4634V15.4626ZM6.60448 6.05628C6.77233 5.91265 7.02544 5.93211 7.16907 6.09995C7.31269 6.2678 7.29324 6.52091 7.12539 6.66454C6.63506 7.0844 6.23562 7.60852 5.96205 8.20308C5.69951 8.77293 5.55318 9.40911 5.55318 10.081C5.55318 10.7529 5.6995 11.3886 5.96205 11.9589C6.2356 12.5535 6.63444 13.0776 7.12539 13.4975C7.29324 13.6411 7.31318 13.8942 7.16907 14.062C7.02544 14.2299 6.77232 14.2498 6.60448 14.1057C6.02617 13.6106 5.55639 12.9934 5.2344 12.2941C4.92341 11.619 4.7503 10.8692 4.7503 10.0811C4.7503 9.29287 4.9239 8.54256 5.2344 7.86811C5.55639 7.16882 6.0263 6.55162 6.60448 6.0565V6.05628Z" fill="#7C7C7C" stroke="#7C7C7C" stroke-width="0.75"/>
</svg>
