<svg width="20" height="20" viewBox="0 0 20 20" fill="none" xmlns="http://www.w3.org/2000/svg">
<g clip-path="url(#clip0_1_2569)">
<path d="M19.9998 20H10.0148C8.06393 19.9991 6.15596 19.4275 4.52587 18.3558C2.89578 17.2841 1.61477 15.759 0.840616 13.9683C0.0664622 12.1776 -0.16702 10.1996 0.168928 8.27794C0.504875 6.35624 1.39558 4.57477 2.73133 3.15295C4.06708 1.73114 5.78955 0.731076 7.68656 0.275949C9.58357 -0.179179 11.5723 -0.0694963 13.4077 0.591488C15.2432 1.25247 16.8452 2.43589 18.0165 3.99597C19.1878 5.55606 19.8772 7.42468 19.9998 9.37167V9.42417V20ZM10.0148 1.66667C7.80464 1.66667 5.68502 2.54464 4.12222 4.10744C2.55942 5.67025 1.68144 7.78986 1.68144 10C1.68144 12.2101 2.55942 14.3298 4.12222 15.8926C5.68502 17.4554 7.80464 18.3333 10.0148 18.3333H18.3331V9.45083C18.1902 7.3411 17.252 5.36419 15.7081 3.91936C14.1641 2.47453 12.1293 1.66943 10.0148 1.66667Z" fill="#7C7C7C"/>
<path d="M10.8335 5.83325H5.8335V7.49992H10.8335V5.83325Z" fill="#7C7C7C"/>
<path d="M14.1668 9.16687H5.8335V10.8335H14.1668V9.16687Z" fill="#7C7C7C"/>
<path d="M14.1668 12.5H5.8335V14.1667H14.1668V12.5Z" fill="#7C7C7C"/>
</g>
<defs>
<clipPath id="clip0_1_2569">
<rect width="20" height="20" fill="white"/>
</clipPath>
</defs>
</svg>
