<svg width="26" height="22" viewBox="0 0 26 22" fill="none" xmlns="http://www.w3.org/2000/svg">
<path d="M9.75 8.8125H24.75C24.8875 8.8125 25 8.7 25 8.5625V6.8125C25 6.675 24.8875 6.5625 24.75 6.5625H9.75C9.6125 6.5625 9.5 6.675 9.5 6.8125V8.5625C9.5 8.7 9.6125 8.8125 9.75 8.8125ZM9.5 15.1875C9.5 15.325 9.6125 15.4375 9.75 15.4375H24.75C24.8875 15.4375 25 15.325 25 15.1875V13.4375C25 13.3 24.8875 13.1875 24.75 13.1875H9.75C9.6125 13.1875 9.5 13.3 9.5 13.4375V15.1875ZM25.25 0H0.75C0.6125 0 0.5 0.1125 0.5 0.25V2C0.5 2.1375 0.6125 2.25 0.75 2.25H25.25C25.3875 2.25 25.5 2.1375 25.5 2V0.25C25.5 0.1125 25.3875 0 25.25 0ZM25.25 19.75H0.75C0.6125 19.75 0.5 19.8625 0.5 20V21.75C0.5 21.8875 0.6125 22 0.75 22H25.25C25.3875 22 25.5 21.8875 25.5 21.75V20C25.5 19.8625 25.3875 19.75 25.25 19.75ZM0.60625 11.2156L5.49063 15.0625C5.67188 15.2062 5.94063 15.0781 5.94063 14.8469V7.15312C5.94063 6.92187 5.675 6.79375 5.49063 6.9375L0.60625 10.7844C0.573407 10.8099 0.546831 10.8426 0.528549 10.88C0.510268 10.9173 0.500765 10.9584 0.500765 11C0.500765 11.0416 0.510268 11.0827 0.528549 11.12C0.546831 11.1574 0.573407 11.1901 0.60625 11.2156V11.2156Z" fill="#5E5E5E"/>
</svg>
