<svg width="20" height="20" viewBox="0 0 20 20" fill="none" xmlns="http://www.w3.org/2000/svg">
<g clip-path="url(#clip0_1_2595)">
<path d="M4.58301 14.1668C5.27336 14.1668 5.83301 13.6072 5.83301 12.9168C5.83301 12.2265 5.27336 11.6668 4.58301 11.6668C3.89265 11.6668 3.33301 12.2265 3.33301 12.9168C3.33301 13.6072 3.89265 14.1668 4.58301 14.1668Z" fill="#7C7C7C"/>
<path d="M17.5 2.5H2.5C1.83696 2.5 1.20107 2.76339 0.732233 3.23223C0.263392 3.70107 0 4.33696 0 5L0 17.5H20V5C20 4.33696 19.7366 3.70107 19.2678 3.23223C18.7989 2.76339 18.163 2.5 17.5 2.5ZM2.5 4.16667H17.5C17.721 4.16667 17.933 4.25446 18.0893 4.41074C18.2455 4.56702 18.3333 4.77899 18.3333 5V6.66667H1.66667V5C1.66667 4.77899 1.75446 4.56702 1.91074 4.41074C2.06702 4.25446 2.27899 4.16667 2.5 4.16667V4.16667ZM1.66667 15.8333V8.33333H18.3333V15.8333H1.66667Z" fill="#7C7C7C"/>
</g>
<defs>
<clipPath id="clip0_1_2595">
<rect width="20" height="20" fill="white"/>
</clipPath>
</defs>
</svg>
