<svg width="20" height="20" viewBox="0 0 20 20" fill="none" xmlns="http://www.w3.org/2000/svg">
<g clip-path="url(#clip0_1_329)">
<path d="M13.2809 6.90217C13.4035 7.58995 13.308 8.29884 13.0078 8.92968C12.7076 9.56052 12.2177 10.0818 11.6067 10.4205C11.379 10.5926 11.1918 10.8125 11.0582 11.0648C10.9246 11.317 10.8479 11.5954 10.8334 11.8805V12.4997H9.16675V11.8805C9.1824 11.2982 9.33941 10.7285 9.62424 10.2204C9.90907 9.71225 10.3132 9.28102 10.8017 8.96383C11.1104 8.79487 11.3577 8.53254 11.5081 8.21444C11.6586 7.89634 11.7045 7.53879 11.6392 7.193C11.5751 6.86324 11.4139 6.56016 11.1763 6.32261C10.9388 6.08506 10.6357 5.92385 10.3059 5.85967C10.0652 5.81472 9.81745 5.8234 9.58042 5.88507C9.3434 5.94673 9.12287 6.05989 8.93454 6.21647C8.74622 6.37305 8.59471 6.56921 8.49082 6.791C8.38692 7.01279 8.33317 7.25475 8.33341 7.49967H6.66675C6.66627 7.01285 6.77267 6.53187 6.97844 6.09068C7.1842 5.64948 7.48431 5.25884 7.85758 4.94633C8.30456 4.57091 8.84229 4.31945 9.41697 4.21711C9.99165 4.11476 10.5831 4.16512 11.1322 4.36314C11.6813 4.56117 12.1688 4.89992 12.5459 5.3455C12.923 5.79108 13.1764 6.32787 13.2809 6.90217ZM18.3334 4.5555V9.99217C18.3334 16.1897 12.4609 19.033 10.6609 19.7563L9.96508 20.0363L9.29841 19.703C7.50425 18.8055 1.66675 15.4613 1.66675 9.99217V4.5555C1.6666 4.03085 1.83196 3.51953 2.13928 3.09431C2.44659 2.66909 2.88021 2.35165 3.37841 2.18717L10.0001 -0.00866699L16.6217 2.18717C17.1199 2.35165 17.5536 2.66909 17.8609 3.09431C18.1682 3.51953 18.3336 4.03085 18.3334 4.5555V4.5555ZM16.6667 4.5555C16.6659 4.38124 16.6105 4.21163 16.5082 4.07052C16.406 3.92941 16.2621 3.8239 16.0967 3.76883L10.0001 1.74967L3.90341 3.76883C3.73808 3.8239 3.59417 3.92941 3.49193 4.07052C3.38968 4.21163 3.33424 4.38124 3.33341 4.5555V9.99217C3.33341 14.5055 8.46591 17.423 10.0392 18.2105C11.5942 17.583 16.6667 15.1447 16.6667 9.99217V4.5555ZM9.16675 15.833H10.8334V14.1663H9.16675V15.833Z" fill="#7C7C7C"/>
</g>
<defs>
<clipPath id="clip0_1_329">
<rect width="20" height="20" fill="white"/>
</clipPath>
</defs>
</svg>
