<svg width="20" height="20" viewBox="0 0 20 20" fill="none" xmlns="http://www.w3.org/2000/svg">
<g clip-path="url(#clip0_1_2585)">
<path d="M12.5 13.3335C12.5 13.7755 12.6756 14.1994 12.9882 14.512C13.3007 14.8245 13.7246 15.0001 14.1667 15.0001C14.6087 15.0001 15.0326 14.8245 15.3452 14.512C15.6577 14.1994 15.8333 13.7755 15.8333 13.3335C15.8333 12.8914 15.6577 12.4675 15.3452 12.155C15.0326 11.8424 14.6087 11.6668 14.1667 11.6668C13.7246 11.6668 13.3007 11.8424 12.9882 12.155C12.6756 12.4675 12.5 12.8914 12.5 13.3335Z" fill="#7C7C7C"/>
<path d="M6.66683 15.8335C5.78277 15.8335 4.93493 15.4823 4.30981 14.8572C3.68469 14.232 3.3335 13.3842 3.3335 12.5001C3.3335 11.6161 3.68469 10.7682 4.30981 10.1431C4.93493 9.518 5.78277 9.16681 6.66683 9.16681C7.55088 9.16681 8.39873 9.518 9.02385 10.1431C9.64897 10.7682 10.0002 11.6161 10.0002 12.5001C10.0002 13.3842 9.64897 14.232 9.02385 14.8572C8.39873 15.4823 7.55088 15.8335 6.66683 15.8335ZM6.66683 10.8335C6.2248 10.8335 5.80088 11.0091 5.48832 11.3216C5.17576 11.6342 5.00016 12.0581 5.00016 12.5001C5.00016 12.9422 5.17576 13.3661 5.48832 13.6786C5.80088 13.9912 6.2248 14.1668 6.66683 14.1668C7.10886 14.1668 7.53278 13.9912 7.84534 13.6786C8.1579 13.3661 8.3335 12.9422 8.3335 12.5001C8.3335 12.0581 8.1579 11.6342 7.84534 11.3216C7.53278 11.0091 7.10886 10.8335 6.66683 10.8335Z" fill="#7C7C7C"/>
<path d="M20 19.9999H11.6667V19.1666C11.6667 18.8351 11.535 18.5171 11.3006 18.2827C11.0661 18.0483 10.7482 17.9166 10.4167 17.9166C10.0851 17.9166 9.76721 18.0483 9.53278 18.2827C9.29836 18.5171 9.16667 18.8351 9.16667 19.1666V19.9999H4.0275C-0.648331 19.9241 -0.529998 11.7333 0.933336 8.75661C2.01156 5.58409 4.02231 2.81092 6.7025 0.799945C7.38935 0.296633 8.21484 0.017643 9.0662 0.00108715C9.91756 -0.0154687 10.7533 0.231217 11.4592 0.707445L20 7.08328V19.9999ZM13.2117 18.3333H18.3333V8.33328H4.0275C3.69913 8.33145 3.37765 8.42739 3.10399 8.60889C2.83033 8.79039 2.61689 9.04923 2.49084 9.35244C1.96185 10.6138 1.68198 11.9656 1.66667 13.3333C1.68198 14.701 1.96185 16.0528 2.49084 17.3141C2.61689 17.6173 2.83033 17.8762 3.10399 18.0577C3.37765 18.2392 3.69913 18.3351 4.0275 18.3333H7.62167C7.80736 17.7372 8.17874 17.2162 8.68158 16.8461C9.18441 16.4761 9.79237 16.2765 10.4167 16.2765C11.041 16.2765 11.6489 16.4761 12.1518 16.8461C12.6546 17.2162 13.026 17.7372 13.2117 18.3333ZM9.1425 1.66661C8.62332 1.66456 8.11736 1.83029 7.7 2.13911C6.07402 3.37043 4.71349 4.91747 3.7 6.68744C3.81074 6.67594 3.92201 6.67038 4.03334 6.67078H16.6575L10.5 2.06828C10.0968 1.80395 9.62463 1.66425 9.1425 1.66661Z" fill="#7C7C7C"/>
</g>
<defs>
<clipPath id="clip0_1_2585">
<rect width="20" height="20" fill="white"/>
</clipPath>
</defs>
</svg>
