<svg width="20" height="20" viewBox="0 0 20 20" fill="none" xmlns="http://www.w3.org/2000/svg">
<path d="M12.4998 18.9583H7.49984C2.97484 18.9583 1.0415 17.025 1.0415 12.5V7.49996C1.0415 2.97496 2.97484 1.04163 7.49984 1.04163H12.4998C17.0248 1.04163 18.9582 2.97496 18.9582 7.49996V12.5C18.9582 17.025 17.0248 18.9583 12.4998 18.9583ZM7.49984 2.29163C3.65817 2.29163 2.2915 3.65829 2.2915 7.49996V12.5C2.2915 16.3416 3.65817 17.7083 7.49984 17.7083H12.4998C16.3415 17.7083 17.7082 16.3416 17.7082 12.5V7.49996C17.7082 3.65829 16.3415 2.29163 12.4998 2.29163H7.49984Z" fill="#7C7C7C"/>
<path d="M7.2335 12.775C6.8835 12.775 6.5585 12.6917 6.27516 12.5333C5.5835 12.1417 5.2085 11.3667 5.2085 10.35V2.03333C5.2085 1.69166 5.49183 1.40833 5.8335 1.40833C6.17516 1.40833 6.4585 1.69166 6.4585 2.03333V10.35C6.4585 10.8917 6.61683 11.2917 6.89183 11.4417C7.1835 11.6083 7.6335 11.525 8.12516 11.2333L9.22516 10.575C9.67516 10.3083 10.3168 10.3083 10.7668 10.575L11.8668 11.2333C12.3668 11.5333 12.8168 11.6083 13.1002 11.4417C13.3752 11.2833 13.5335 10.8833 13.5335 10.35V2.03333C13.5335 1.69166 13.8168 1.40833 14.1585 1.40833C14.5002 1.40833 14.7835 1.69166 14.7835 2.03333V10.35C14.7835 11.3667 14.4085 12.1417 13.7168 12.5333C13.0252 12.925 12.1168 12.8417 11.2252 12.3083L10.1252 11.65C10.0752 11.6167 9.91683 11.6167 9.86683 11.65L8.76683 12.3083C8.25016 12.6167 7.71683 12.775 7.2335 12.775Z" fill="#7C7C7C"/>
<path d="M12.4998 18.9583H7.49984C2.97484 18.9583 1.0415 17.025 1.0415 12.5V7.49996C1.0415 2.97496 2.97484 1.04163 7.49984 1.04163H12.4998C17.0248 1.04163 18.9582 2.97496 18.9582 7.49996V12.5C18.9582 17.025 17.0248 18.9583 12.4998 18.9583ZM7.49984 2.29163C3.65817 2.29163 2.2915 3.65829 2.2915 7.49996V12.5C2.2915 16.3416 3.65817 17.7083 7.49984 17.7083H12.4998C16.3415 17.7083 17.7082 16.3416 17.7082 12.5V7.49996C17.7082 3.65829 16.3415 2.29163 12.4998 2.29163H7.49984Z" fill="#7C7C7C"/>
<path d="M7.2335 12.775C6.8835 12.775 6.5585 12.6917 6.27516 12.5333C5.5835 12.1417 5.2085 11.3667 5.2085 10.35V2.03333C5.2085 1.69166 5.49183 1.40833 5.8335 1.40833C6.17516 1.40833 6.4585 1.69166 6.4585 2.03333V10.35C6.4585 10.8917 6.61683 11.2917 6.89183 11.4417C7.1835 11.6083 7.6335 11.525 8.12516 11.2333L9.22516 10.575C9.67516 10.3083 10.3168 10.3083 10.7668 10.575L11.8668 11.2333C12.3668 11.5333 12.8168 11.6083 13.1002 11.4417C13.3752 11.2833 13.5335 10.8833 13.5335 10.35V2.03333C13.5335 1.69166 13.8168 1.40833 14.1585 1.40833C14.5002 1.40833 14.7835 1.69166 14.7835 2.03333V10.35C14.7835 11.3667 14.4085 12.1417 13.7168 12.5333C13.0252 12.925 12.1168 12.8417 11.2252 12.3083L10.1252 11.65C10.0752 11.6167 9.91683 11.6167 9.86683 11.65L8.76683 12.3083C8.25016 12.6167 7.71683 12.775 7.2335 12.775Z" fill="#7C7C7C"/>
</svg>
