<svg width="20" height="20" viewBox="0 0 20 20" fill="none" xmlns="http://www.w3.org/2000/svg">
<path d="M2.9165 15.625C2.57484 15.625 2.2915 15.3416 2.2915 15V5.83329C2.2915 2.15829 3.40817 1.04163 7.08317 1.04163H12.9165C16.5915 1.04163 17.7082 2.15829 17.7082 5.83329V14.1666C17.7082 14.3 17.7082 14.425 17.6998 14.5583C17.6748 14.9 17.3665 15.1666 17.0332 15.1416C16.6915 15.1166 16.4248 14.8166 16.4498 14.475C16.4582 14.375 16.4582 14.2666 16.4582 14.1666V5.83329C16.4582 2.85829 15.8998 2.29163 12.9165 2.29163H7.08317C4.09984 2.29163 3.5415 2.85829 3.5415 5.83329V15C3.5415 15.3416 3.25817 15.625 2.9165 15.625Z" fill="#7C7C7C"/>
<path d="M14.1665 18.9583H5.83317C3.88317 18.9583 2.2915 17.3667 2.2915 15.4167V14.875C2.2915 13.2167 3.6415 11.875 5.2915 11.875H17.0832C17.4248 11.875 17.7082 12.1583 17.7082 12.5V15.4167C17.7082 17.3667 16.1165 18.9583 14.1665 18.9583ZM5.2915 13.125C4.32484 13.125 3.5415 13.9083 3.5415 14.875V15.4167C3.5415 16.6833 4.5665 17.7083 5.83317 17.7083H14.1665C15.4332 17.7083 16.4582 16.6833 16.4582 15.4167V13.125H5.2915Z" fill="#7C7C7C"/>
<path d="M13.3332 6.45837H6.6665C6.32484 6.45837 6.0415 6.17504 6.0415 5.83337C6.0415 5.49171 6.32484 5.20837 6.6665 5.20837H13.3332C13.6748 5.20837 13.9582 5.49171 13.9582 5.83337C13.9582 6.17504 13.6748 6.45837 13.3332 6.45837Z" fill="#7C7C7C"/>
<path d="M10.8332 9.375H6.6665C6.32484 9.375 6.0415 9.09167 6.0415 8.75C6.0415 8.40833 6.32484 8.125 6.6665 8.125H10.8332C11.1748 8.125 11.4582 8.40833 11.4582 8.75C11.4582 9.09167 11.1748 9.375 10.8332 9.375Z" fill="#7C7C7C"/>
</svg>
