<svg width="24" height="24" viewBox="0 0 24 24" fill="none" xmlns="http://www.w3.org/2000/svg">
<path d="M3 16.5H1.5V3C1.5004 2.6023 1.65856 2.221 1.93978 1.93978C2.221 1.65856 2.6023 1.5004 3 1.5H16.5V3H3V16.5ZM15.75 12.75C16.195 12.75 16.63 12.618 17 12.3708C17.37 12.1236 17.6584 11.7722 17.8287 11.361C17.999 10.9499 18.0436 10.4975 17.9568 10.061C17.87 9.62459 17.6557 9.22368 17.341 8.90901C17.0263 8.59434 16.6254 8.38005 16.189 8.29323C15.7525 8.20642 15.3001 8.25097 14.889 8.42127C14.4778 8.59157 14.1264 8.87996 13.8792 9.24997C13.632 9.61998 13.5 10.055 13.5 10.5C13.5006 11.0966 13.7378 11.6685 14.1597 12.0903C14.5815 12.5122 15.1534 12.7494 15.75 12.75ZM15.75 9.75C15.8983 9.75 16.0433 9.79399 16.1667 9.8764C16.29 9.95881 16.3861 10.0759 16.4429 10.213C16.4997 10.35 16.5145 10.5008 16.4856 10.6463C16.4566 10.7918 16.3852 10.9254 16.2803 11.0303C16.1754 11.1352 16.0418 11.2066 15.8963 11.2356C15.7508 11.2645 15.6 11.2497 15.463 11.1929C15.3259 11.1361 15.2088 11.04 15.1264 10.9167C15.044 10.7933 15 10.6483 15 10.5C15 10.3011 15.079 10.1103 15.2197 9.96967C15.3603 9.82902 15.5511 9.75 15.75 9.75Z" fill="#5E5E5E"/>
<path d="M21 5.25H6.75C6.3523 5.2504 5.971 5.40856 5.68978 5.68978C5.40856 5.971 5.2504 6.3523 5.25 6.75V21C5.2504 21.3977 5.40856 21.779 5.68978 22.0602C5.971 22.3414 6.3523 22.4996 6.75 22.5H21C21.3977 22.4996 21.779 22.3414 22.0602 22.0602C22.3414 21.779 22.4996 21.3977 22.5 21V6.75C22.4996 6.3523 22.3414 5.971 22.0602 5.68978C21.779 5.40856 21.3977 5.2504 21 5.25ZM21 21H6.75V16.5L9.75 13.5023L13.9395 17.6918C14.2208 17.973 14.6023 18.1309 15 18.1309C15.3977 18.1309 15.7792 17.973 16.0605 17.6918L17.25 16.5023L21 20.25V21ZM21 18.129L18.3105 15.4395C18.0292 15.1583 17.6477 15.0003 17.25 15.0003C16.8523 15.0003 16.4708 15.1583 16.1895 15.4395L15 16.629L10.8105 12.4395C10.5292 12.1583 10.1477 12.0003 9.75 12.0003C9.35225 12.0003 8.97079 12.1583 8.6895 12.4395L6.75 14.379V6.75H21V18.129Z" fill="#5E5E5E"/>
</svg>
